<?xml version="1.0" encoding="utf-8"?>
<svg viewBox="148.644 104.019 725.589 642.629" xmlns="http://www.w3.org/2000/svg">
  <g transform="matrix(0.10000000149011612, 0, 0, -0.10000000149011612, 0, 1024)" fill="#000000" stroke="none">
    <path d="M4780 9040 c-544 -29 -1163 -218 -1660 -508 -512 -299 -905 -690 -1175 -1167 -181 -321 -295 -664 -330 -1000 -21 -194 -16 -532 10 -725 35 -258 122 -532 259 -815 198 -407 459 -734 812 -1018 302 -243 730 -471 1119 -598 239 -77 279 -87 490 -129 324 -64 390 -69 815 -66 423 3 504 12 835 87 412 94 735 213 1070 396 548 299 948 693 1224 1208 260 483 375 986 342 1495 -7 102 -16 205 -20 230 -5 25 -12 68 -16 95 -14 110 -76 315 -150 500 -275 680 -808 1236 -1534 1599 -324 163 -638 269 -1061 360 -254 55 -645 76 -1030 56z m336 -315 c18 -19 23 -31 19 -48 -21 -69 -115 -59 -115 13 0 18 8 34 22 44 31 22 45 20 74 -9z m-643 -56 c8 -11 13 -28 10 -38 -5 -19 -42 -41 -69 -41 -41 0 -419 -104 -511 -141 -63 -25 -117 18 -77 62 22 25 373 135 494 155 14 3 39 8 55 13 51 16 83 12 98 -10z m1447 -19 c181 -44 233 -61 258 -83 26 -24 28 -40 7 -60 -16 -17 -20 -16 -236 42 -64 17 -140 36 -170 41 -49 10 -89 32 -89 52 0 4 9 17 20 28 23 23 38 22 210 -20z m-425 -295 c218 -36 493 -109 648 -172 103 -42 317 -151 412 -211 226 -141 420 -306 568 -482 40 -47 74 -87 77 -90 53 -49 170 -233 239 -375 77 -159 93 -196 87 -211 -3 -8 -2 -14 2 -14 5 0 13 -15 20 -32 16 -48 72 -248 70 -256 -1 -4 2 -18 5 -32 21 -81 35 -406 18 -395 -6 3 -11 1 -11 -4 0 -6 4 -11 8 -11 4 0 8 -9 9 -20 1 -11 -1 -19 -5 -16 -4 2 -8 -21 -8 -52 -2 -64 -13 -162 -20 -174 -3 -4 -7 -21 -9 -38 -4 -37 -25 -101 -36 -116 -5 -6 -7 -13 -4 -16 3 -2 -4 -35 -16 -71 -15 -47 -26 -67 -37 -67 -13 0 -14 -2 -4 -8 10 -7 9 -16 -4 -48 -9 -21 -20 -42 -26 -45 -5 -3 -8 -10 -6 -16 5 -16 -85 -182 -96 -176 -5 3 -6 2 -3 -4 7 -12 -29 -73 -43 -73 -6 0 -9 -4 -6 -8 4 -8 -110 -169 -146 -206 -7 -7 -26 -30 -42 -51 -27 -33 -31 -35 -38 -19 -7 15 -7 14 -4 -5 4 -20 -10 -41 -81 -113 -77 -78 -118 -111 -97 -76 4 7 3 8 -5 4 -6 -4 -9 -11 -6 -15 7 -12 -64 -73 -75 -66 -6 4 -9 1 -8 -6 2 -6 -3 -14 -10 -16 -9 -4 -11 3 -8 20 3 19 1 24 -10 20 -8 -3 -11 -9 -8 -14 3 -5 -2 -12 -10 -15 -9 -3 -16 -13 -16 -22 0 -13 2 -13 13 3 10 13 16 15 21 6 10 -15 -23 -42 -42 -36 -7 3 -11 1 -7 -4 10 -17 -91 -81 -130 -83 -21 -1 -31 -4 -23 -9 6 -4 16 -5 20 -3 4 3 8 1 8 -4 0 -16 -27 -21 -39 -9 -7 7 -12 8 -11 2 5 -26 -1 -37 -19 -32 -13 3 -18 0 -15 -8 3 -7 -3 -15 -13 -19 -10 -3 -37 -17 -60 -30 -36 -20 -43 -21 -55 -9 -13 12 -15 12 -15 -1 0 -8 5 -12 10 -9 5 3 8 0 5 -8 -2 -7 -20 -19 -38 -27 -31 -12 -33 -12 -20 2 11 14 10 16 -4 10 -9 -3 -16 -11 -16 -18 0 -6 -14 -19 -31 -28 -34 -20 -53 -23 -44 -8 3 6 1 10 -4 10 -6 0 -11 -6 -11 -13 0 -7 -9 -18 -20 -25 -25 -15 -62 0 -54 23 4 8 1 15 -6 15 -6 0 -8 -5 -4 -12 5 -8 1 -9 -12 -4 -12 4 -7 -3 11 -18 17 -14 25 -25 19 -26 -5 0 -16 6 -23 13 -10 10 -11 8 -5 -7 5 -13 4 -17 -3 -13 -6 4 -16 0 -23 -8 -7 -8 -16 -13 -20 -10 -5 3 -11 1 -15 -5 -3 -5 -13 -10 -21 -10 -12 0 -13 4 -4 23 11 21 10 21 -4 3 -9 -11 -16 -23 -16 -27 0 -4 -7 -10 -16 -13 -14 -5 -15 -4 -4 9 8 10 9 15 2 15 -6 0 -16 -9 -22 -20 -6 -11 -15 -18 -21 -15 -5 4 -9 1 -9 -4 0 -6 -7 -11 -16 -11 -9 0 -49 -12 -90 -26 -41 -14 -96 -26 -123 -27 -27 -1 -47 -5 -44 -9 2 -5 -2 -8 -9 -9 -7 0 -22 -3 -33 -5 -32 -7 -91 -16 -270 -38 -124 -16 -432 -14 -580 4 -131 15 -309 47 -400 70 -44 11 -88 23 -98 25 -49 11 -205 61 -307 97 -246 89 -466 212 -677 380 -115 92 -295 272 -342 343 -14 21 -35 49 -46 61 -11 12 -36 48 -55 79 -19 31 -49 78 -66 104 -54 83 -155 309 -158 356 0 13 -5 21 -10 17 -5 -3 -7 2 -3 11 4 10 2 17 -4 17 -6 0 -9 7 -5 15 3 8 1 15 -4 15 -5 0 -7 7 -4 15 4 8 2 15 -3 15 -9 0 -37 96 -38 130 -1 8 -4 20 -8 26 -3 6 -5 27 -4 48 2 20 0 36 -5 36 -13 0 -9 30 5 30 6 0 4 5 -5 11 -12 6 -18 21 -17 42 1 18 -1 41 -4 52 -2 11 0 28 5 39 7 13 7 16 -1 12 -10 -7 -17 16 -11 39 4 16 2 77 -4 113 -3 22 -1 30 6 26 8 -5 9 -1 3 12 -13 31 -7 143 15 277 5 34 10 66 10 70 0 5 3 6 8 4 4 -3 7 11 8 31 1 21 9 67 18 103 24 94 101 284 113 282 6 -1 9 6 6 17 -3 10 11 48 33 87 137 249 336 485 569 673 44 35 82 67 85 70 11 12 79 60 85 60 3 0 21 11 39 25 18 14 36 25 40 25 4 0 35 18 69 40 214 140 573 282 852 340 213 43 293 49 635 45 179 -1 343 -6 365 -10z m1253 -31 c29 -20 31 -79 3 -94 -26 -14 -64 -13 -79 2 -17 17 -15 68 5 90 20 22 42 23 71 2z m-3340 -34 c12 -12 22 -32 22 -45 0 -30 -32 -65 -60 -65 -26 0 -60 34 -60 60 0 23 42 70 63 70 7 0 23 -9 35 -20z m-446 -337 c28 -33 29 -53 3 -79 -29 -29 -58 -31 -84 -5 -16 16 -18 26 -11 52 5 18 15 36 22 41 22 13 54 9 70 -9z m4486 -180 c129 -134 144 -158 123 -192 -23 -36 -57 -15 -194 124 -75 76 -137 144 -137 151 0 20 37 54 58 54 9 0 77 -61 150 -137z m-4900 -289 c32 -22 28 -45 -18 -103 -22 -28 -40 -54 -40 -59 0 -5 -7 -16 -17 -23 -9 -8 -22 -27 -30 -44 -23 -51 -107 -201 -122 -219 -16 -19 -52 -21 -69 -4 -20 20 -13 60 23 123 19 33 44 78 55 100 32 58 124 196 149 223 26 26 39 27 69 6z m5330 -314 c33 -44 109 -213 143 -315 44 -133 90 -325 84 -347 -8 -24 -37 -38 -63 -31 -22 5 -49 64 -37 83 3 5 2 10 -3 10 -5 0 -13 19 -17 43 -11 59 -9 52 -49 173 -42 125 -40 118 -100 245 -49 103 -56 142 -28 158 29 17 47 12 70 -19z m-5693 -497 c18 -17 17 -54 -4 -160 -17 -84 -26 -173 -26 -245 0 -38 -3 -68 -6 -68 -7 0 -3 -141 6 -214 7 -57 -12 -86 -55 -86 -50 0 -53 14 -52 223 2 216 5 255 34 414 25 140 57 182 103 136z m5939 -569 c23 -22 21 -81 -3 -94 -46 -24 -91 0 -91 47 0 53 59 82 94 47z m-44 -419 c23 -28 -7 -182 -43 -222 -35 -39 -87 -25 -87 24 0 38 41 177 58 196 19 21 55 22 72 2z m-5858 -202 c27 -24 23 -69 -8 -90 -23 -15 -29 -15 -52 -2 -37 21 -45 52 -21 83 23 30 54 33 81 9z m5664 -388 c18 -18 23 -31 19 -48 -8 -25 -41 -57 -60 -57 -26 0 -57 36 -57 65 0 30 32 65 59 65 7 0 25 -11 39 -25z m-5465 -118 c23 -40 63 -101 88 -137 59 -82 61 -89 44 -122 -13 -28 -45 -37 -69 -20 -12 8 -108 150 -169 249 -36 60 -37 64 -22 87 17 26 54 38 74 23 6 -4 30 -40 54 -80z m4847 -554 c22 -85 40 -137 57 -157 14 -17 37 -46 52 -64 l26 -33 -36 -37 -36 -36 -55 60 -54 60 -124 18 c-188 27 -178 21 -122 70 52 46 38 45 173 21 29 -5 42 -5 38 2 -4 6 -13 36 -22 68 l-15 58 36 48 c20 27 39 49 42 49 4 0 22 -57 40 -127z m-4236 -180 c20 -18 24 -73 6 -91 -31 -31 -98 1 -98 48 0 18 8 34 22 44 29 20 47 20 70 -1z m3767 -120 c-5 -27 -12 -75 -17 -109 l-8 -61 119 -38 c65 -22 120 -42 123 -46 2 -4 -17 -23 -42 -42 l-46 -36 -63 24 c-35 13 -74 29 -86 35 -18 10 -25 9 -42 -9 l-21 -20 33 -52 c17 -29 28 -55 24 -59 -4 -4 -24 -17 -44 -29 l-37 -21 -105 162 c-58 89 -104 165 -101 170 6 10 85 51 89 46 1 -2 19 -30 40 -63 38 -59 38 -60 46 -32 4 15 10 47 13 70 12 83 19 97 71 127 28 16 53 30 56 30 4 0 2 -21 -2 -47z m-3005 -175 c44 -14 146 -103 146 -129 0 -9 -16 -19 -40 -26 -38 -10 -42 -9 -75 23 -44 41 -89 51 -138 31 -94 -40 -84 -171 14 -197 31 -9 49 -9 66 -1 33 15 32 16 53 -31 l19 -43 -22 -12 c-35 -20 -142 -16 -186 6 -132 68 -155 225 -47 330 57 55 131 72 210 49z m2456 -65 c0 -5 -11 -44 -25 -88 -14 -44 -25 -85 -25 -92 0 -7 54 -40 121 -74 66 -34 117 -65 112 -69 -4 -4 -32 -18 -60 -30 l-53 -22 -32 19 c-18 11 -57 35 -86 53 l-53 34 -24 -27 -25 -26 25 -43 c14 -24 25 -48 25 -54 0 -10 -100 -47 -108 -39 -6 6 -122 344 -122 356 0 11 75 33 92 26 8 -3 23 -32 33 -66 10 -34 21 -61 25 -61 4 0 14 19 22 43 52 143 47 135 91 151 48 17 67 19 67 9z m-1986 -94 c3 -2 -3 -34 -12 -71 -8 -37 -13 -70 -9 -74 3 -4 30 -12 59 -19 29 -7 62 -15 73 -19 22 -6 35 17 50 91 8 42 17 46 66 38 35 -6 40 -10 36 -29 -2 -11 -20 -94 -38 -183 l-34 -163 -30 0 c-16 0 -41 3 -54 7 -21 5 -22 10 -17 42 4 20 10 52 13 71 l5 35 -78 18 c-86 20 -88 19 -99 -41 -3 -19 -10 -45 -15 -58 -9 -23 -10 -23 -56 -9 -25 7 -48 16 -51 18 -2 3 1 22 7 44 6 21 27 94 46 163 19 69 37 132 39 141 4 13 14 14 50 9 25 -4 47 -9 49 -11z m1259 -181 c9 -51 19 -112 22 -135 7 -43 7 -43 48 -42 23 0 69 4 102 8 33 5 61 8 62 7 1 -1 5 -20 9 -42 l6 -41 -73 -11 c-145 -23 -233 -32 -240 -25 -5 7 -17 85 -46 320 -6 45 0 49 63 52 l32 1 15 -92z m-501 57 c6 -9 34 -72 63 -139 29 -66 62 -142 74 -168 11 -26 21 -49 21 -52 0 -4 -26 -6 -58 -6 -55 0 -58 1 -69 30 l-11 30 -91 0 c-86 0 -91 -1 -107 -25 -14 -22 -24 -25 -70 -25 -30 0 -54 2 -54 5 0 19 169 324 196 355 19 22 93 18 106 -5z"/>
    <path d="M5260 8181 c-192 -96 -736 -374 -765 -391 -16 -10 -131 -70 -255 -135 -124 -65 -290 -153 -370 -195 -80 -43 -251 -133 -380 -201 -129 -67 -275 -144 -325 -170 -49 -25 -105 -61 -122 -79 l-33 -33 0 -338 c0 -265 -3 -339 -12 -339 -10 0 -10 -2 0 -8 14 -9 13 -62 -1 -62 -5 0 -3 -8 4 -17 8 -10 9 -14 2 -10 -6 4 -14 3 -18 -3 -4 -6 -11 -8 -16 -5 -5 3 -6 -1 -3 -9 3 -9 1 -16 -5 -16 -6 0 -11 9 -11 19 0 11 -5 23 -10 26 -6 4 -7 11 -4 17 4 7 10 5 16 -6 10 -18 28 -22 28 -5 0 5 -4 7 -10 4 -5 -3 -10 1 -10 9 0 9 -7 16 -15 16 -8 0 -15 -5 -15 -11 0 -8 -6 -7 -17 2 -12 10 -10 4 5 -18 24 -34 31 -69 7 -37 -14 18 -14 18 -15 -11 0 -22 -3 -26 -9 -16 -6 9 -6 22 -1 32 12 20 -10 42 -33 34 -20 -8 -11 -38 30 -100 95 -144 188 -230 327 -301 156 -80 292 -113 468 -114 389 -1 710 139 1073 468 17 15 50 43 75 62 25 19 50 40 56 46 7 5 49 39 94 75 45 35 101 79 124 98 53 43 278 152 383 185 99 31 239 59 398 81 206 28 325 61 456 125 201 97 348 233 423 390 69 144 33 247 -86 244 -68 -2 -89 -26 -134 -154 -4 -12 -7 -12 -13 -1 -6 9 -11 10 -15 2 -4 -6 -2 -11 3 -11 6 0 11 -6 11 -14 0 -18 -40 -67 -50 -61 -4 3 -7 -1 -6 -8 0 -7 -17 -29 -40 -49 l-41 -38 -6 299 c-4 248 -8 304 -21 330 -20 37 -152 106 -541 281 -444 200 -426 196 -575 121z m167 -194 c-9 14 61 -12 181 -69 51 -24 89 -48 85 -53 -5 -4 -2 -5 5 -1 14 8 222 -87 222 -101 0 -5 -33 -25 -72 -46 -40 -20 -131 -68 -203 -107 -71 -39 -179 -96 -240 -126 -60 -31 -139 -73 -175 -94 -57 -33 -197 -107 -610 -323 -211 -110 -435 -229 -445 -237 -5 -4 -66 -36 -134 -70 l-124 -63 -46 22 c-107 52 -451 235 -451 240 0 7 38 28 315 174 99 52 277 146 395 209 497 265 748 395 1050 544 107 53 202 99 210 104 9 4 21 3 29 -4 11 -8 13 -8 8 1z m733 -507 c0 -5 -5 -10 -11 -10 -5 0 -7 5 -4 10 3 6 8 10 11 10 2 0 4 -4 4 -10z m-11 -59 c21 -13 23 -59 3 -71 -14 -8 -14 -9 -2 -10 23 0 25 -110 2 -111 -14 0 -13 -2 3 -9 16 -7 17 -9 3 -9 -9 -1 -20 -6 -24 -13 -4 -7 -3 -8 4 -4 7 4 12 1 12 -9 0 -9 5 -13 10 -10 15 9 12 -78 -2 -94 -10 -11 -10 -13 0 -7 8 5 12 -2 12 -25 0 -18 -3 -29 -7 -26 -3 4 -12 2 -19 -3 -6 -6 -20 -13 -30 -15 -11 -3 -50 -13 -89 -24 -38 -11 -72 -20 -75 -21 -3 0 -16 -4 -29 -7 -17 -4 -28 0 -39 13 -14 18 -14 18 -8 -2 8 -26 -10 -33 -134 -50 -25 -3 -54 -7 -65 -9 -11 -1 -28 -6 -38 -10 -12 -5 -22 -2 -31 11 -17 23 -10 44 15 44 10 0 19 6 19 14 0 24 28 26 45 3 9 -12 13 -17 10 -10 -7 15 5 44 16 38 4 -3 6 -12 3 -19 -3 -8 3 -16 14 -18 16 -5 18 -1 14 16 -5 20 -5 20 12 4 14 -14 20 -15 31 -5 7 6 11 14 9 16 -2 2 1 10 7 18 8 9 15 10 24 3 9 -8 14 -6 19 5 3 8 12 15 19 15 8 0 19 11 25 25 7 15 8 25 2 25 -6 0 -10 -7 -10 -15 0 -8 -4 -15 -10 -15 -16 0 -49 33 -43 43 3 5 -1 13 -8 18 -11 7 -11 9 -1 9 7 0 11 4 7 9 -3 5 0 13 6 17 9 5 10 0 7 -14 -4 -14 -2 -22 7 -22 8 0 12 14 11 42 -1 31 3 43 14 44 9 0 10 -1 3 -3 -15 -5 -17 -23 -3 -23 6 0 8 -12 5 -27 -6 -27 -6 -27 9 -9 9 11 16 17 16 14 0 -4 3 -13 6 -22 4 -12 0 -16 -15 -16 -12 0 -21 -4 -21 -10 0 -5 9 -10 20 -10 11 0 20 6 20 13 0 8 4 7 10 -3 7 -11 8 -5 3 20 -3 19 -11 38 -16 41 -13 9 -1 39 15 39 9 0 9 -3 -2 -10 -12 -8 -12 -10 3 -16 9 -3 14 -10 11 -15 -3 -5 4 -9 15 -9 10 0 21 -5 23 -11 2 -7 12 1 22 16 13 19 15 30 7 38 -10 10 -11 10 -24 -33 -3 -11 -8 -8 -15 10 -8 23 -7 26 19 33 17 4 29 14 29 24 0 14 -2 14 -20 -2 -23 -21 -36 -15 -26 12 6 15 8 15 16 3 9 -14 14 -7 11 13 -1 4 8 3 19 -3 16 -9 18 -15 10 -30 -13 -25 -13 -27 8 -35 13 -5 14 -4 5 6 -18 18 3 49 33 49 23 0 25 3 19 33 -6 32 -6 32 9 8 7 -14 12 -32 9 -40 -4 -14 -3 -14 5 -1 6 8 9 17 6 21 -2 4 5 9 16 12 11 3 20 12 20 21 0 10 -6 14 -17 10 -16 -4 -16 -4 -2 7 15 11 14 15 -10 36 -24 22 -24 24 -5 18 15 -4 24 0 28 11 4 9 4 19 1 22 -3 3 -5 0 -5 -6 0 -7 -8 -12 -17 -11 -11 0 -13 3 -5 6 14 6 16 33 2 33 -5 0 -10 -5 -10 -12 0 -6 -3 -9 -6 -5 -8 8 5 27 19 27 7 0 18 -4 26 -9z m-85 -82 c-3 -6 -2 -14 4 -18 7 -4 5 -13 -5 -26 -12 -16 -14 -16 -10 -3 3 10 2 20 -4 24 -6 4 -6 11 2 20 14 17 23 19 13 3z m42 -26 c-10 -10 -19 5 -10 18 6 11 8 11 12 0 2 -7 1 -15 -2 -18z m-66 -14 c0 -4 -7 -6 -15 -3 -8 4 -15 10 -15 15 0 4 7 6 15 3 8 -4 15 -10 15 -15z m80 -9 c0 -5 -4 -10 -10 -10 -5 0 -10 5 -10 10 0 6 5 10 10 10 6 0 10 -4 10 -10z m-113 -6 c-3 -3 -12 -4 -19 -1 -8 3 -5 6 6 6 11 1 17 -2 13 -5z m43 -18 c0 -11 -19 -15 -25 -6 -3 5 1 10 9 10 9 0 16 -2 16 -4z m-144 -53 c-7 -7 -26 7 -26 19 0 6 6 6 15 -2 9 -7 13 -15 11 -17z m-105 -52 c6 10 8 8 7 -8 -2 -25 -28 -20 -27 6 0 12 2 12 6 2 5 -11 7 -11 14 0z m9 -75 c0 -8 -6 -18 -12 -23 -9 -5 -3 -9 16 -13 29 -5 38 -24 13 -26 -6 0 -14 -2 -17 -3 -3 -2 -13 -4 -23 -6 -22 -4 -35 -15 -19 -15 7 0 12 -5 12 -11 0 -8 -4 -8 -14 1 -8 6 -29 14 -45 16 -25 4 -31 2 -31 -13 -1 -17 -1 -17 -11 0 -6 9 -14 15 -20 12 -5 -4 -9 -1 -9 4 0 6 7 11 16 11 8 0 12 5 8 11 -3 6 8 3 25 -5 17 -9 31 -13 31 -8 0 5 -15 16 -32 25 -23 12 -26 15 -9 11 14 -4 21 -2 18 3 -4 5 0 10 8 10 8 0 14 -3 13 -6 -2 -18 3 -24 11 -12 5 8 14 10 21 6 10 -6 9 -11 -4 -21 -9 -6 -13 -15 -8 -18 15 -9 35 22 29 44 -3 13 0 20 10 20 8 0 11 5 8 10 -3 6 -1 10 4 10 6 0 11 -6 11 -14z m-183 -51 c-4 -8 -14 -14 -24 -14 -17 1 -17 2 0 6 9 2 17 12 17 20 0 9 3 14 6 10 4 -3 4 -13 1 -22z m-63 -30 c-4 -8 -10 -15 -15 -15 -4 0 -6 7 -3 15 4 8 10 15 15 15 4 0 6 -7 3 -15z m30 -16 c-3 -5 -10 -7 -15 -3 -5 3 -7 10 -3 15 3 5 10 7 15 3 5 -3 7 -10 3 -15z m39 -15 c-3 -8 -10 -14 -17 -14 -6 0 -19 -9 -29 -20 -18 -22 -22 -35 -8 -26 7 5 21 -14 21 -29 0 -1 -19 -5 -41 -8 -40 -5 -78 11 -62 27 4 3 1 6 -5 6 -15 0 -15 -13 -1 -27 8 -8 5 -14 -10 -23 -12 -6 -26 -8 -31 -5 -6 3 -10 2 -10 -2 0 -5 -13 -14 -30 -20 -25 -9 -32 -9 -41 5 -10 16 -10 16 -5 0 5 -17 -19 -32 -35 -22 -5 3 -9 1 -9 -5 0 -5 -9 -8 -20 -6 -11 2 -23 -2 -27 -8 -14 -21 -81 -48 -87 -34 -2 7 -5 4 -5 -5 -1 -10 -6 -18 -11 -18 -7 0 -7 7 0 21 7 12 18 18 26 15 8 -3 14 1 14 10 0 8 -4 12 -10 9 -5 -3 -10 0 -10 8 0 7 7 14 15 14 8 0 12 -4 10 -8 -3 -3 3 -13 12 -20 15 -13 16 -11 11 14 -3 15 -1 30 5 34 5 3 7 1 4 -4 -4 -6 1 -17 10 -24 9 -8 14 -9 10 -3 -4 7 0 17 9 24 12 11 12 15 2 21 -8 6 -9 9 -2 9 6 0 17 -7 24 -15 17 -21 50 -19 50 3 0 14 -2 15 -10 2 -5 -8 -10 -11 -10 -6 0 5 8 17 18 26 16 16 18 15 34 -9 l18 -26 0 28 c0 17 5 27 15 27 8 0 15 -5 15 -11 0 -5 -4 -7 -10 -4 -5 3 -10 -2 -10 -11 0 -14 6 -11 29 12 16 16 26 31 23 34 -4 3 -8 11 -10 18 -2 10 2 10 18 0 18 -11 23 -9 43 16 19 23 27 27 42 19 12 -7 14 -13 6 -17 -6 -4 -11 -2 -11 4 0 6 -5 8 -11 4 -8 -4 -7 -9 2 -14 16 -11 39 -1 39 16 0 8 9 14 21 14 17 0 19 4 13 22 -6 20 -5 21 9 10 9 -8 13 -20 10 -28z m-143 -34 c0 -5 -2 -10 -4 -10 -3 0 -8 5 -11 10 -3 6 -1 10 4 10 6 0 11 -4 11 -10z m-73 -32 c-3 -8 -6 -5 -6 6 -1 11 2 17 5 13 3 -3 4 -12 1 -19z m-264 -150 c-7 -26 -38 -60 -47 -51 -3 4 -14 -1 -23 -9 -20 -18 -79 -49 -89 -47 -4 0 -11 -5 -15 -13 -7 -10 -9 -9 -9 4 0 11 12 21 33 27 21 6 26 10 12 11 -18 1 -17 3 5 12 14 6 33 10 44 9 11 -2 16 2 11 8 -3 7 -3 10 2 9 22 -6 51 14 48 33 -2 11 0 17 5 14 5 -3 11 -1 15 5 10 17 13 11 8 -12z m-1887 3 c5 -5 52 -31 104 -59 273 -143 405 -214 417 -224 11 -9 13 -61 11 -269 -2 -207 -5 -256 -15 -247 -7 6 -10 14 -7 19 3 5 -3 6 -12 2 -11 -4 -13 -8 -6 -11 7 -2 12 -9 12 -15 0 -8 -25 -13 -71 -14 -57 -2 -74 1 -87 15 -10 10 -14 13 -9 8 16 -21 6 -28 -18 -12 -14 9 -25 14 -25 10 0 -4 -8 0 -17 7 -14 12 -16 12 -8 0 6 -11 4 -13 -9 -8 -10 4 -24 7 -32 7 -9 0 -13 4 -10 9 4 5 -2 7 -12 4 -10 -2 -44 7 -75 21 -44 20 -55 30 -51 44 5 14 4 14 -4 3 -9 -12 -17 -10 -49 14 -21 16 -41 33 -45 39 -9 14 -10 666 0 666 4 0 12 -4 18 -9z m1844 -22 c0 -5 -4 -9 -8 -9 -5 0 -9 7 -9 15 0 8 4 12 9 9 4 -3 8 -9 8 -15z m-50 7 c0 -3 -4 -8 -10 -11 -5 -3 -10 -1 -10 4 0 6 5 11 10 11 6 0 10 -2 10 -4z m-100 -116 c0 -5 -4 -10 -10 -10 -5 0 -10 5 -10 10 0 6 5 10 10 10 6 0 10 -4 10 -10z m-42 -42 c-11 -10 -25 -15 -29 -12 -5 3 -9 0 -9 -7 0 -11 -28 -38 -40 -39 -3 0 -6 14 -5 30 0 25 2 28 11 15 16 -21 27 -19 19 4 -5 16 -2 18 14 14 13 -3 24 2 32 16 9 14 16 16 20 9 4 -7 -2 -20 -13 -30z m-95 -56 c-9 -21 -18 -30 -70 -66 -24 -16 -43 -33 -43 -38 0 -5 -9 -7 -20 -3 -15 5 -18 3 -14 -9 4 -11 1 -16 -10 -16 -9 0 -15 -5 -13 -10 1 -6 -11 -18 -28 -28 -16 -9 -38 -27 -48 -40 -11 -13 -25 -21 -33 -18 -7 3 -15 -3 -19 -12 -11 -36 -95 -72 -95 -41 0 6 5 7 11 3 8 -4 9 1 5 17 -3 13 -3 19 0 13 3 -7 14 -10 25 -7 14 4 18 11 14 27 -5 15 -4 17 3 7 8 -11 15 -10 41 5 17 10 29 24 27 31 -3 7 1 13 9 13 8 0 15 6 16 13 0 9 2 9 6 -1 3 -9 11 -6 27 11 12 13 29 27 37 30 12 5 12 7 -1 17 -13 10 -12 11 3 6 10 -3 25 2 35 12 10 10 24 16 32 14 11 -4 11 -2 -1 10 -8 9 -21 13 -29 11 -13 -4 -13 -3 -1 5 10 7 21 7 32 1 24 -12 32 -11 23 3 -4 6 -3 9 2 6 5 -3 18 -2 29 3 18 7 18 8 2 8 -10 1 -15 6 -12 11 4 6 10 8 14 6 4 -3 13 -1 21 5 13 7 13 9 0 9 -13 0 -13 2 0 9 19 13 31 4 23 -17z m-409 -328 c-15 -13 -33 -24 -41 -24 -7 0 -13 -3 -13 -8 0 -4 -10 -13 -22 -21 -13 -7 -20 -10 -16 -6 4 5 4 13 -2 19 -5 7 -5 17 0 26 8 12 10 10 10 -7 0 -22 1 -22 21 -5 12 9 31 27 42 39 10 12 26 19 34 16 12 -5 9 -11 -13 -29z m-1524 2 c0 -3 -4 -8 -10 -11 -5 -3 -10 -1 -10 4 0 6 5 11 10 11 6 0 10 -2 10 -4z m1420 -59 c0 -7 -18 -23 -40 -36 -22 -12 -40 -19 -40 -15 0 3 -8 0 -17 -7 -16 -12 -17 -12 -6 2 7 9 10 18 7 22 -3 3 4 3 17 0 14 -4 26 0 35 11 7 10 16 18 21 19 4 1 7 5 6 10 -2 4 2 7 7 7 6 0 10 -6 10 -13z m-1310 -11 c0 -3 -4 -8 -10 -11 -5 -3 -10 -1 -10 4 0 6 5 11 10 11 6 0 10 -2 10 -4z"/>
    <path d="M5372 7940 c-6 -11 -8 -21 -3 -25 5 -3 13 4 16 16 9 28 2 33 -13 9z"/>
    <path d="M5411 7947 c-8 -10 -7 -14 2 -14 8 0 14 6 14 14 0 7 -1 13 -2 13 -2 0 -8 -6 -14 -13z"/>
    <path d="M5453 7953 c-15 -5 -17 -23 -4 -23 5 0 11 7 15 15 3 8 4 15 3 14 -1 0 -8 -3 -14 -6z"/>
    <path d="M5336 7937 c3 -10 9 -15 12 -12 3 3 0 11 -7 18 -10 9 -11 8 -5 -6z"/>
    <path d="M5473 7933 c4 -3 2 -12 -4 -20 -17 -19 -5 -16 21 7 l23 20 -23 0 c-13 0 -20 -3 -17 -7z"/>
    <path d="M5390 7916 c0 -2 8 -10 18 -17 15 -13 16 -12 3 4 -13 16 -21 21 -21 13z"/>
    <path d="M5545 7900 c-3 -5 -1 -10 4 -10 6 0 11 5 11 10 0 6 -2 10 -4 10 -3 0 -8 -4 -11 -10z"/>
    <path d="M5507 7889 c7 -7 15 -10 18 -7 3 3 -2 9 -12 12 -14 6 -15 5 -6 -5z"/>
    <path d="M5470 7876 c0 -2 8 -10 18 -17 15 -13 16 -12 3 4 -13 16 -21 21 -21 13z"/>
    <path d="M6065 7220 c-3 -5 -1 -10 4 -10 6 0 11 5 11 10 0 6 -2 10 -4 10 -3 0 -8 -4 -11 -10z"/>
    <path d="M6065 7180 c10 -11 20 -20 23 -20 3 0 -3 9 -13 20 -10 11 -20 20 -23 20 -3 0 3 -9 13 -20z"/>
    <path d="M6085 7140 c3 -5 8 -10 11 -10 2 0 4 5 4 10 0 6 -5 10 -11 10 -5 0 -7 -4 -4 -10z"/>
    <path d="M5930 7132 c0 -25 47 -38 67 -18 4 4 -1 6 -13 4 -11 -1 -28 3 -37 11 -10 7 -17 9 -17 3z"/>
    <path d="M6022 7120 c-18 -29 -15 -38 4 -12 9 13 14 25 12 27 -2 2 -9 -5 -16 -15z"/>
    <path d="M6090 7102 c6 -13 14 -21 18 -18 3 4 -2 14 -12 24 -18 16 -18 16 -6 -6z"/>
    <path d="M5846 7091 c-3 -5 1 -11 9 -15 8 -3 15 -1 15 4 0 13 -18 22 -24 11z"/>
    <path d="M5942 7082 c1 -4 -2 -15 -7 -25 -4 -10 -5 -21 -1 -24 3 -4 6 1 6 10 0 11 8 15 26 14 15 -1 28 4 30 11 1 7 0 8 -3 2 -2 -5 -11 -10 -19 -10 -9 0 -13 4 -10 9 3 5 -1 11 -9 15 -8 3 -14 2 -13 -2z"/>
    <path d="M5899 7038 c-5 -17 -4 -48 3 -48 4 0 7 11 6 25 -2 21 -6 31 -9 23z"/>
    <path d="M5795 6959 c-4 -6 -5 -12 -2 -15 2 -3 7 2 10 11 7 17 1 20 -8 4z"/>
    <path d="M5516 6932 c-2 -4 2 -18 10 -32 l15 -25 -7 24 c-5 18 -3 22 7 15 12 -6 12 -5 0 9 -15 19 -18 20 -25 9z"/>
    <path d="M5450 6870 c0 -5 5 -10 11 -10 5 0 7 5 4 10 -3 6 -8 10 -11 10 -2 0 -4 -4 -4 -10z"/>
    <path d="M5290 6824 c0 -8 5 -12 10 -9 6 4 8 11 5 16 -9 14 -15 11 -15 -7z"/>
    <path d="M3744 6039 c-3 -6 -1 -16 5 -22 8 -8 15 -7 26 6 8 9 10 12 3 7 -18 -15 -31 -12 -24 5 6 17 0 20 -10 4z"/>
    <path d="M3567 6001 c-4 -17 -3 -21 5 -13 5 5 8 16 6 23 -3 8 -7 3 -11 -10z"/>
    <path d="M3610 6000 c-13 -8 -12 -10 3 -10 9 0 17 5 17 10 0 12 -1 12 -20 0z"/>
    <path d="M4456 6253 c-6 -14 -5 -15 5 -6 7 7 10 15 7 18 -3 3 -9 -2 -12 -12z"/>
    <path d="M6973 7217 c0 -12 -7 -40 -16 -61 -10 -22 -15 -41 -13 -43 2 -3 -3 -13 -12 -22 -9 -10 -33 -44 -52 -76 -19 -31 -64 -87 -100 -124 -198 -205 -459 -321 -850 -381 -74 -11 -146 -22 -160 -24 -157 -25 -350 -101 -487 -193 -63 -43 -218 -165 -278 -220 -91 -83 -308 -254 -406 -320 -81 -53 -266 -142 -377 -179 -195 -65 -348 -87 -562 -81 -145 4 -179 8 -280 35 -188 51 -303 106 -417 198 -23 19 -44 34 -47 34 -10 0 5 -52 21 -78 7 -12 11 -27 8 -32 -3 -5 0 -12 6 -16 8 -5 10 -2 5 7 -4 8 -1 5 8 -5 8 -10 13 -22 11 -26 -3 -5 2 -10 10 -14 8 -3 15 -12 15 -20 0 -7 7 -17 16 -20 9 -4 14 -13 10 -22 -3 -8 -2 -13 3 -10 5 3 34 -21 65 -54 32 -33 66 -65 76 -70 12 -7 17 -17 14 -28 -5 -13 -4 -14 4 -3 10 14 36 6 28 -8 -3 -4 1 -8 7 -8 22 0 127 -53 127 -64 0 -6 5 -7 10 -4 6 4 34 0 63 -8 68 -20 130 -30 192 -31 28 -1 55 -5 61 -9 6 -3 14 -4 17 -1 9 9 127 10 127 2 0 -4 6 -5 14 -2 30 11 150 -20 276 -71 47 -20 90 -28 156 -32 83 -5 97 -3 145 19 30 14 79 47 109 73 133 116 234 159 370 157 47 0 94 -3 105 -5 97 -22 156 -29 224 -25 108 6 181 43 292 146 99 92 134 114 213 137 71 21 144 16 267 -16 196 -50 330 -24 451 89 27 26 56 59 64 74 8 15 26 39 40 53 14 14 22 30 19 35 -3 6 1 10 10 10 11 0 15 5 11 15 -3 9 0 15 9 15 9 0 12 -6 9 -17 -5 -17 -5 -17 6 0 6 9 16 14 22 11 7 -4 8 -2 4 5 -4 6 -11 9 -16 6 -5 -3 -12 0 -16 6 -9 15 25 41 43 35 17 -7 16 4 -2 24 -14 15 -13 17 2 17 10 0 26 -9 36 -20 19 -22 22 -16 7 14 -12 22 2 60 14 40 4 -6 12 -11 18 -11 6 0 1 8 -10 19 -12 10 -19 21 -16 24 4 3 13 0 21 -8 10 -10 20 -12 31 -6 11 6 24 6 35 0 11 -7 17 -6 17 1 0 5 -6 10 -12 11 -7 0 -21 2 -30 4 -10 2 -18 -2 -18 -8 0 -7 -4 -6 -10 3 -6 10 -5 17 5 23 17 9 20 37 4 37 -5 0 -7 5 -3 11 4 8 11 3 20 -12 9 -18 9 -26 1 -32 -8 -6 -6 -7 4 -4 9 3 26 -1 38 -9 12 -9 21 -11 21 -5 0 6 -4 11 -8 11 -19 0 -43 27 -51 58 -13 43 -4 41 15 -4 11 -27 18 -34 26 -26 9 9 6 17 -8 33 -19 22 -19 22 3 15 16 -5 25 -2 32 13 8 13 8 22 1 26 -6 4 -8 11 -4 16 3 5 10 6 16 3 7 -5 9 -2 6 8 -6 14 2 18 45 19 9 0 17 4 17 9 0 5 7 6 17 3 11 -4 14 -3 9 5 -5 8 2 12 21 12 15 0 37 8 48 17 l20 16 -20 -8 c-11 -5 -35 -8 -54 -7 -49 3 -169 -34 -191 -57 -3 -4 -17 -12 -33 -20 -25 -14 -58 -46 -178 -176 -134 -147 -236 -199 -389 -199 -59 1 -105 7 -150 22 -123 40 -182 51 -255 47 -117 -5 -158 -29 -347 -197 -95 -84 -139 -111 -223 -132 -75 -20 -285 -10 -285 14 0 4 10 15 23 24 12 9 17 14 10 11 -6 -3 -14 -1 -18 5 -8 14 -35 13 -35 -1 0 -6 7 -9 15 -5 8 3 15 0 15 -5 0 -6 -9 -9 -19 -6 -11 3 -22 -1 -25 -9 -3 -8 0 -11 10 -7 7 3 14 1 14 -5 0 -5 -26 -10 -57 -10 -52 0 -54 1 -26 9 17 5 40 20 50 33 10 13 29 26 41 30 12 4 20 12 17 17 -3 5 1 6 9 3 10 -4 16 -1 16 7 0 7 3 10 6 7 3 -4 1 -15 -5 -26 -8 -16 -7 -21 5 -26 12 -5 14 -1 8 16 -5 17 -3 20 11 14 16 -6 16 -4 4 11 -12 15 -12 16 4 10 9 -3 17 -2 17 3 0 6 5 10 11 10 5 0 7 -5 4 -11 -4 -6 2 -5 14 2 12 8 16 16 10 20 -8 5 -8 9 0 13 6 4 11 12 11 17 0 6 -5 7 -12 3 -7 -4 -8 -3 -4 4 4 6 12 9 20 6 7 -3 21 6 30 19 14 17 25 22 47 19 16 -2 29 -9 29 -15 0 -6 2 -8 5 -5 13 13 -7 35 -27 30 -15 -4 -19 -2 -14 7 5 7 23 11 44 9 25 -2 37 2 39 12 4 12 3 12 -5 2 -7 -11 -10 -11 -15 2 -4 9 -2 17 3 17 6 1 16 2 23 3 6 1 11 7 10 13 -2 7 8 10 25 8 15 -2 21 -2 15 1 -19 8 -16 27 3 20 8 -3 13 -2 10 3 -6 9 44 47 57 43 4 -1 6 4 5 10 -2 7 5 12 15 11 10 0 16 2 13 5 -8 7 24 42 39 42 7 0 18 7 25 15 7 8 16 13 20 10 4 -3 10 1 13 9 3 8 19 17 36 21 17 4 31 10 31 15 0 10 90 37 157 48 78 11 160 4 271 -24 189 -47 304 -22 410 89 213 223 246 252 332 293 93 46 130 60 175 69 17 3 41 8 55 11 14 3 75 8 137 11 91 5 110 8 106 20 -5 12 -7 12 -14 1 -6 -10 -9 -8 -9 7 0 17 -2 17 -10 5 -9 -13 -11 -13 -20 0 -5 8 -10 22 -10 31 0 9 -7 22 -15 29 -8 7 -12 17 -8 23 3 5 1 7 -5 3 -6 -3 -13 -2 -16 3 -3 5 3 11 14 14 12 3 20 -1 23 -12 4 -14 5 -14 6 2 1 10 9 17 20 17 11 0 22 -8 24 -17 4 -16 5 -16 6 -1 0 9 -4 20 -9 23 -8 5 -7 12 2 23 12 16 11 16 -7 1 -38 -31 -49 -34 -42 -13 7 18 6 18 -7 2 -18 -24 -21 -23 -24 12 -2 20 2 30 12 30 9 0 12 7 9 20 -3 12 -8 19 -11 16 -2 -3 -13 -1 -23 4 -12 7 -20 7 -24 0 -9 -15 -25 -2 -19 15 3 7 11 12 19 9 17 -7 26 33 10 46 -15 12 -31 -3 -21 -19 3 -5 0 -11 -8 -14 -9 -4 -13 3 -12 23 1 21 8 32 26 40 l24 12 -24 20 c-24 19 -24 19 -3 15 14 -3 24 1 28 11 5 14 7 15 16 2 9 -13 10 -13 6 1 -3 9 0 22 6 28 8 8 8 11 -1 11 -7 0 -12 -5 -12 -11 0 -5 -4 -8 -8 -5 -4 2 -7 22 -6 43 1 21 -4 47 -9 58 -6 11 -11 23 -12 27 0 4 -10 15 -23 23 -12 9 -19 21 -16 27 4 7 10 5 16 -6 5 -9 13 -16 19 -16 5 0 1 9 -10 21 -11 12 -17 27 -15 34 3 7 -1 15 -9 18 -10 4 -14 -2 -14 -16z m60 -120 c3 -8 2 -18 -1 -24 -9 -13 -36 -2 -40 15 -1 8 2 11 8 7 5 -3 10 -1 10 4 0 16 17 14 23 -2z m-23 -43 c0 -8 -19 -13 -24 -6 -3 5 1 9 9 9 8 0 15 -2 15 -3z m25 -31 c2 -10 4 -19 4 -20 3 -8 0 -13 -6 -13 -5 0 -8 5 -8 10 0 6 -4 10 -10 10 -5 0 -10 -4 -10 -9 0 -5 -3 -13 -7 -17 -13 -13 0 35 14 50 15 16 18 15 23 -11z m-55 -23 c0 -5 -2 -10 -4 -10 -3 0 -8 5 -11 10 -3 6 -1 10 4 10 6 0 11 -4 11 -10z m10 -40 c0 -5 -5 -10 -11 -10 -5 0 -7 5 -4 10 3 6 8 10 11 10 2 0 4 -4 4 -10z m10 -25 c6 3 10 1 10 -6 0 -7 -10 -9 -25 -7 -13 3 -26 0 -29 -6 -2 -6 -3 -1 -3 11 1 18 4 20 19 12 10 -6 23 -7 28 -4z m-90 -9 c0 -2 -8 -10 -17 -17 -16 -13 -17 -12 -4 4 13 16 21 21 21 13z m30 -76 c0 -5 -4 -10 -10 -10 -5 0 -10 5 -10 10 0 6 5 10 10 10 6 0 10 -4 10 -10z m44 -6 c3 -8 2 -12 -4 -9 -6 3 -10 10 -10 16 0 14 7 11 14 -7z m-20 -10 c3 -8 2 -12 -4 -9 -6 3 -10 10 -10 16 0 14 7 11 14 -7z m-94 -28 c0 -2 -7 -6 -15 -10 -8 -3 -15 -1 -15 4 0 6 7 10 15 10 8 0 15 -2 15 -4z m43 -11 c-3 -9 -8 -14 -10 -11 -3 3 -2 9 2 15 9 16 15 13 8 -4z m144 -14 c-8 -9 -13 -26 -12 -39 2 -21 0 -21 -21 -7 -17 11 -24 12 -27 2 -3 -6 -4 2 -4 20 2 29 17 37 17 8 0 -8 4 -16 9 -19 5 -4 8 6 6 21 -4 36 1 42 25 36 18 -5 19 -8 7 -22z m-118 -7 c4 3 8 -1 8 -9 0 -11 -4 -12 -14 -4 -7 6 -13 17 -12 23 0 7 2 6 6 -2 2 -6 8 -10 12 -8z m41 -65 c0 -8 5 -8 15 1 12 10 15 10 15 -3 0 -17 -24 -17 -42 1 -9 9 -9 12 0 12 7 0 12 -5 12 -11z m-42 -29 c-7 -11 -16 -20 -20 -20 -11 0 -10 9 5 25 18 21 29 18 15 -5z m134 -9 c15 -15 19 -27 14 -46 -4 -15 -11 -23 -17 -19 -8 4 -7 9 1 14 10 6 6 15 -15 34 -22 20 -30 23 -37 14 -4 -8 -8 -8 -8 -2 0 29 33 32 62 5z m-105 -10 c0 -11 -5 -18 -9 -15 -4 3 -5 11 -1 19 7 21 12 19 10 -4z m93 -18 c0 -5 -11 -8 -24 -8 -13 0 -22 3 -19 8 2 4 13 7 24 7 10 0 19 -3 19 -7z m-240 -473 c0 -5 -4 -10 -10 -10 -5 0 -10 5 -10 10 0 6 5 10 10 10 6 0 10 -4 10 -10z m-1807 -454 c4 -10 1 -13 -8 -9 -8 3 -12 9 -9 14 7 12 11 11 17 -5z m-123 -48 c0 -4 -4 -8 -9 -8 -6 0 -12 4 -15 8 -3 5 1 9 9 9 8 0 15 -4 15 -9z m-60 -48 c-20 -13 -43 -13 -35 0 4 6 10 8 15 5 5 -3 12 0 15 6 4 5 10 8 13 4 4 -3 0 -10 -8 -15z m-60 -30 c0 -5 -5 -10 -11 -10 -5 0 -7 5 -4 10 3 6 8 10 11 10 2 0 4 -4 4 -10z"/>
    <path d="M6430 7210 c0 -5 5 -10 10 -10 6 0 10 5 10 10 0 6 -4 10 -10 10 -5 0 -10 -4 -10 -10z"/>
    <path d="M7040 7151 c0 -6 4 -13 10 -16 6 -3 7 1 4 9 -7 18 -14 21 -14 7z"/>
    <path d="M7101 7083 c-1 -12 4 -25 9 -28 12 -7 12 2 0 30 -8 19 -9 19 -9 -2z"/>
    <path d="M7150 7030 c0 -5 5 -10 10 -10 6 0 10 5 10 10 0 6 -4 10 -10 10 -5 0 -10 -4 -10 -10z"/>
    <path d="M7053 6880 c2 -52 5 -58 25 -38 9 9 12 8 12 -6 0 -9 4 -15 10 -11 17 10 -1 36 -21 30 -15 -5 -18 -3 -12 12 3 10 10 23 14 28 5 6 0 16 -11 23 -17 10 -18 8 -17 -38z"/>
    <path d="M7105 6900 c-3 -6 1 -17 9 -26 9 -9 16 -11 16 -4 0 6 4 9 8 6 5 -3 9 1 9 9 0 11 -4 12 -14 4 -12 -11 -17 -5 -14 14 2 10 -7 9 -14 -3z"/>
    <path d="M2710 6800 c0 -5 5 -10 11 -10 5 0 7 5 4 10 -3 6 -8 10 -11 10 -2 0 -4 -4 -4 -10z"/>
    <path d="M7111 6804 c-1 -6 6 -17 14 -24 13 -10 15 -9 15 11 0 17 -3 20 -9 10 -7 -11 -9 -11 -14 0 -3 8 -6 9 -6 3z"/>
    <path d="M7122 6660 c-7 -12 -8 -21 -2 -25 6 -3 10 0 10 9 0 8 5 16 12 18 7 3 8 7 2 11 -5 3 -15 -3 -22 -13z"/>
    <path d="M2640 6650 c0 -5 5 -10 11 -10 5 0 7 5 4 10 -3 6 -8 10 -11 10 -2 0 -4 -4 -4 -10z"/>
    <path d="M7250 6646 c0 -2 9 -6 20 -9 11 -3 18 -1 14 4 -5 9 -34 13 -34 5z"/>
    <path d="M7235 6620 c-3 -5 -1 -10 4 -10 6 0 11 5 11 10 0 6 -2 10 -4 10 -3 0 -8 -4 -11 -10z"/>
    <path d="M7185 6580 c3 -5 8 -10 11 -10 2 0 4 5 4 10 0 6 -5 10 -11 10 -5 0 -7 -4 -4 -10z"/>
    <path d="M6950 6240 c-9 -6 -10 -10 -3 -10 6 0 15 5 18 10 8 12 4 12 -15 0z"/>
    <path d="M6881 6235 c0 -5 4 -17 9 -25 7 -12 12 -12 22 -2 9 9 9 12 -4 12 -9 0 -19 6 -21 13 -3 6 -6 8 -6 2z"/>
    <path d="M7500 6230 c0 -5 7 -10 16 -10 8 0 12 5 9 10 -3 6 -10 10 -16 10 -5 0 -9 -4 -9 -10z"/>
    <path d="M2566 6218 c3 -5 10 -6 15 -3 13 9 11 12 -6 12 -8 0 -12 -4 -9 -9z"/>
    <path d="M6860 6221 c0 -6 4 -13 10 -16 6 -3 7 1 4 9 -7 18 -14 21 -14 7z"/>
    <path d="M6940 6205 c0 -8 2 -15 4 -15 2 0 6 7 10 15 3 8 1 15 -4 15 -6 0 -10 -7 -10 -15z"/>
    <path d="M7118 6182 c-34 -20 -58 -68 -58 -115 0 -129 -69 -277 -184 -393 -37 -37 -101 -72 -172 -93 -38 -11 -84 -30 -102 -41 -64 -39 -78 -129 -29 -185 49 -58 154 -50 297 21 80 40 110 62 191 143 60 61 109 120 133 163 80 144 131 354 104 433 -25 73 -116 108 -180 67z"/>
    <path d="M6880 6179 c0 -5 5 -7 10 -4 6 3 10 8 10 11 0 2 -4 4 -10 4 -5 0 -10 -5 -10 -11z"/>
    <path d="M7498 6163 c7 -3 16 -2 19 1 4 3 -2 6 -13 5 -11 0 -14 -3 -6 -6z"/>
    <path d="M2676 6143 c-6 -14 -5 -15 5 -6 7 7 10 15 7 18 -3 3 -9 -2 -12 -12z"/>
    <path d="M7620 6140 c0 -5 5 -10 11 -10 5 0 7 5 4 10 -3 6 -8 10 -11 10 -2 0 -4 -4 -4 -10z"/>
    <path d="M6820 6130 c0 -5 5 -10 10 -10 6 0 10 5 10 10 0 6 -4 10 -10 10 -5 0 -10 -4 -10 -10z"/>
    <path d="M6880 6130 c-12 -7 -12 -11 -2 -20 6 -5 10 -7 7 -4 -3 4 0 13 6 21 13 15 10 16 -11 3z"/>
    <path d="M7560 6120 c0 -6 7 -10 15 -10 8 0 15 2 15 4 0 2 -7 6 -15 10 -8 3 -15 1 -15 -4z"/>
    <path d="M2590 6106 c0 -8 5 -18 10 -21 6 -3 10 1 10 9 0 8 -4 18 -10 21 -5 3 -10 -1 -10 -9z"/>
    <path d="M2610 6071 c-8 -6 -17 -8 -20 -6 -3 2 -7 -6 -7 -18 -2 -21 -1 -21 12 -3 14 19 15 19 37 0 l23 -19 -18 21 c-9 11 -14 24 -10 27 9 10 1 8 -17 -2z"/>
    <path d="M2602 6024 c-7 -8 -8 -14 -3 -14 10 0 25 19 20 25 -2 1 -10 -3 -17 -11z"/>
    <path d="M7530 6036 c0 -2 6 -9 13 -15 10 -8 14 -7 14 4 0 8 -6 15 -14 15 -7 0 -13 -2 -13 -4z"/>
    <path d="M2585 5971 c-3 -5 -1 -12 5 -16 5 -3 10 1 10 9 0 18 -6 21 -15 7z"/>
    <path d="M2660 5969 c0 -5 5 -7 10 -4 6 3 10 8 10 11 0 2 -4 4 -10 4 -5 0 -10 -5 -10 -11z"/>
    <path d="M6720 5972 c0 -5 7 -9 15 -9 8 0 12 4 9 9 -3 4 -9 8 -15 8 -5 0 -9 -4 -9 -8z"/>
    <path d="M7490 5959 c0 -5 5 -7 10 -4 6 3 10 8 10 11 0 2 -4 4 -10 4 -5 0 -10 -5 -10 -11z"/>
    <path d="M7358 5943 c7 -3 16 -2 19 1 4 3 -2 6 -13 5 -11 0 -14 -3 -6 -6z"/>
    <path d="M7353 5915 c0 -8 4 -12 8 -9 4 2 9 0 11 -5 1 -5 10 -2 18 7 13 14 12 15 -3 9 -9 -3 -17 -2 -17 3 0 6 -4 10 -8 10 -5 0 -9 -7 -9 -15z"/>
    <path d="M2600 5890 c-6 -11 -8 -20 -6 -20 3 0 10 9 16 20 6 11 8 20 6 20 -3 0 -10 -9 -16 -20z"/>
    <path d="M7586 5898 c3 -5 10 -6 15 -3 13 9 11 12 -6 12 -8 0 -12 -4 -9 -9z"/>
    <path d="M2645 5869 c-4 -6 -5 -12 -2 -15 2 -3 7 2 10 11 7 17 1 20 -8 4z"/>
    <path d="M2680 5861 c0 -6 4 -13 10 -16 6 -3 7 1 4 9 -7 18 -14 21 -14 7z"/>
    <path d="M2710 5866 c0 -2 7 -7 16 -10 8 -3 12 -2 9 4 -6 10 -25 14 -25 6z"/>
    <path d="M7450 5856 c0 -2 7 -7 16 -10 8 -3 12 -2 9 4 -6 10 -25 14 -25 6z"/>
    <path d="M2590 5846 c0 -2 7 -9 15 -16 13 -11 14 -10 9 4 -5 14 -24 23 -24 12z"/>
    <path d="M2653 5825 c0 -8 4 -12 9 -9 5 3 6 10 3 15 -9 13 -12 11 -12 -6z"/>
    <path d="M2590 5805 c0 -8 4 -15 10 -15 5 0 7 7 4 15 -4 8 -8 15 -10 15 -2 0 -4 -7 -4 -15z"/>
    <path d="M7517 5813 c-13 -13 -7 -24 11 -21 11 2 26 -3 35 -11 11 -8 17 -9 17 -3 0 15 -32 31 -49 24 -8 -3 -11 0 -7 7 8 12 3 15 -7 4z"/>
    <path d="M5200 5792 c0 -4 9 -8 19 -8 11 0 17 4 15 8 -3 4 -12 8 -20 8 -8 0 -14 -4 -14 -8z"/>
    <path d="M2644 5775 c1 -8 6 -18 11 -22 4 -5 5 -2 0 6 -6 11 -4 13 8 8 23 -9 21 0 -2 13 -15 7 -19 7 -17 -5z"/>
    <path d="M2860 5756 c0 -2 7 -6 15 -10 8 -3 15 -1 15 4 0 6 -7 10 -15 10 -8 0 -15 -2 -15 -4z"/>
    <path d="M5140 5751 c0 -6 4 -13 10 -16 6 -3 7 1 4 9 -7 18 -14 21 -14 7z"/>
    <path d="M2826 5733 c-6 -14 -5 -15 5 -6 7 7 10 15 7 18 -3 3 -9 -2 -12 -12z"/>
    <path d="M5100 5741 c0 -5 6 -14 13 -20 10 -8 14 -7 14 4 0 8 -6 16 -14 19 -7 3 -13 2 -13 -3z"/>
    <path d="M7505 5740 c3 -5 8 -10 11 -10 2 0 4 5 4 10 0 6 -5 10 -11 10 -5 0 -7 -4 -4 -10z"/>
    <path d="M7460 5730 c0 -5 5 -10 11 -10 5 0 7 5 4 10 -3 6 -8 10 -11 10 -2 0 -4 -4 -4 -10z"/>
    <path d="M2643 5715 c-10 -10 -9 -14 2 -19 17 -6 26 5 17 21 -5 8 -11 7 -19 -2z"/>
    <path d="M2846 5721 c-3 -5 1 -11 9 -14 9 -4 12 -1 8 9 -6 16 -10 17 -17 5z"/>
    <path d="M2705 5701 c-3 -5 -1 -12 5 -16 5 -3 10 1 10 9 0 18 -6 21 -15 7z"/>
    <path d="M2745 5700 c-3 -5 -1 -10 4 -10 6 0 11 5 11 10 0 6 -2 10 -4 10 -3 0 -8 -4 -11 -10z"/>
    <path d="M5054 5699 c-8 -13 4 -25 36 -34 24 -7 24 -7 5 8 -11 8 -24 13 -29 9 -5 -3 -7 2 -3 11 7 19 2 23 -9 6z"/>
    <path d="M7437 5695 c-4 -8 -3 -16 1 -19 4 -3 9 4 9 15 2 23 -3 25 -10 4z"/>
    <path d="M7513 5695 c0 -8 3 -13 5 -10 3 3 12 -1 20 -8 13 -11 14 -9 1 11 -16 26 -26 28 -26 7z"/>
    <path d="M2796 5686 c6 -15 4 -17 -6 -11 -8 5 -11 4 -6 -3 3 -5 0 -13 -6 -15 -8 -4 -9 -6 -2 -6 6 -1 17 6 24 14 10 13 11 18 1 28 -10 9 -11 8 -5 -7z"/>
    <path d="M2672 5670 c0 -14 2 -19 5 -12 2 6 2 18 0 25 -3 6 -5 1 -5 -13z"/>
    <path d="M2630 5676 c0 -2 7 -9 15 -16 13 -11 14 -10 9 4 -5 14 -24 23 -24 12z"/>
    <path d="M7476 5665 c-3 -8 -1 -15 4 -15 13 0 22 18 11 24 -5 3 -11 -1 -15 -9z"/>
    <path d="M2745 5650 c-3 -5 -1 -10 4 -10 6 0 11 5 11 10 0 6 -2 10 -4 10 -3 0 -8 -4 -11 -10z"/>
    <path d="M2666 5625 c-9 -26 -7 -32 5 -12 6 10 9 21 6 23 -2 3 -7 -2 -11 -11z"/>
    <path d="M2697 5625 c-7 -16 8 -29 23 -20 10 6 2 35 -10 35 -4 0 -10 -7 -13 -15z"/>
    <path d="M2915 5630 c3 -5 8 -10 11 -10 2 0 4 5 4 10 0 6 -5 10 -11 10 -5 0 -7 -4 -4 -10z"/>
    <path d="M4976 5624 c-9 -23 -8 -24 17 -23 16 1 17 3 5 6 -10 2 -15 10 -11 19 3 8 3 14 0 14 -3 0 -8 -7 -11 -16z"/>
    <path d="M7450 5630 c-9 -6 -10 -10 -3 -10 6 0 15 5 18 10 8 12 4 12 -15 0z"/>
    <path d="M2795 5620 c-3 -5 -1 -10 4 -10 6 0 11 5 11 10 0 6 -2 10 -4 10 -3 0 -8 -4 -11 -10z"/>
    <path d="M2840 5613 c0 -13 5 -23 10 -23 13 0 13 11 0 30 -8 12 -10 11 -10 -7z"/>
    <path d="M2875 5620 c-3 -6 1 -7 9 -4 18 7 21 14 7 14 -6 0 -13 -4 -16 -10z"/>
    <path d="M2765 5610 c3 -5 8 -10 11 -10 2 0 4 5 4 10 0 6 -5 10 -11 10 -5 0 -7 -4 -4 -10z"/>
    <path d="M7440 5600 c-9 -6 -10 -10 -3 -10 6 0 15 5 18 10 8 12 4 12 -15 0z"/>
    <path d="M2880 5591 c0 -6 4 -13 10 -16 6 -3 7 1 4 9 -7 18 -14 21 -14 7z"/>
    <path d="M2773 5575 c0 -7 6 -11 14 -8 7 3 13 6 13 8 0 2 -6 5 -13 8 -8 3 -14 -1 -14 -8z"/>
    <path d="M7518 5583 c7 -3 16 -2 19 1 4 3 -2 6 -13 5 -11 0 -14 -3 -6 -6z"/>
    <path d="M7481 5577 c2 -1 13 -9 24 -17 19 -14 19 -14 6 3 -7 9 -18 17 -24 17 -6 0 -8 -1 -6 -3z"/>
    <path d="M2713 5563 c4 -3 1 -13 -6 -22 -11 -14 -10 -15 7 -1 15 12 20 12 23 2 5 -13 23 -7 23 9 0 6 -4 8 -9 4 -5 -3 -12 -1 -16 5 -3 5 -11 10 -17 10 -6 0 -8 -3 -5 -7z"/>
    <path d="M2871 5544 c0 -11 3 -14 6 -6 3 7 2 16 -1 19 -3 4 -6 -2 -5 -13z"/>
    <path d="M7275 5550 c3 -5 11 -10 16 -10 6 0 7 5 4 10 -3 6 -11 10 -16 10 -6 0 -7 -4 -4 -10z"/>
    <path d="M7439 5543 c-13 -16 -12 -17 4 -4 9 7 17 15 17 17 0 8 -8 3 -21 -13z"/>
    <path d="M7483 5523 c0 -9 4 -10 14 -2 7 6 13 12 13 14 0 1 -6 2 -13 2 -8 0 -14 -6 -14 -14z"/>
    <path d="M2825 5500 c-3 -5 1 -10 10 -10 9 0 13 5 10 10 -3 6 -8 10 -10 10 -2 0 -7 -4 -10 -10z"/>
    <path d="M2890 5502 c0 -6 -8 -13 -17 -15 -16 -4 -16 -5 -1 -6 18 -1 34 16 24 26 -3 4 -6 1 -6 -5z"/>
    <path d="M2910 5480 c0 -5 5 -10 11 -10 5 0 7 5 4 10 -3 6 -8 10 -11 10 -2 0 -4 -4 -4 -10z"/>
    <path d="M2981 5483 c0 -6 -4 -20 -7 -30 -5 -14 -4 -15 5 -7 7 7 11 20 8 30 -3 11 -5 14 -6 7z"/>
    <path d="M2833 5455 c0 -8 4 -12 9 -9 5 3 6 10 3 15 -9 13 -12 11 -12 -6z"/>
    <path d="M7450 5458 c0 -11 12 -10 30 2 12 7 10 9 -8 7 -12 0 -22 -5 -22 -9z"/>
    <path d="M2756 5438 c3 -5 10 -6 15 -3 13 9 11 12 -6 12 -8 0 -12 -4 -9 -9z"/>
    <path d="M2897 5443 c-11 -11 -8 -20 7 -20 8 0 12 6 9 14 -6 15 -7 15 -16 6z"/>
    <path d="M7290 5430 c0 -5 5 -10 11 -10 5 0 7 5 4 10 -3 6 -8 10 -11 10 -2 0 -4 -4 -4 -10z"/>
    <path d="M2981 5421 c-8 -5 -9 -11 -3 -15 5 -3 12 1 16 9 6 17 6 18 -13 6z"/>
    <path d="M7400 5415 c0 -8 2 -15 4 -15 2 0 6 7 10 15 3 8 1 15 -4 15 -6 0 -10 -7 -10 -15z"/>
    <path d="M3077 5403 c-4 -3 -7 -11 -7 -17 0 -6 5 -5 12 2 6 6 9 14 7 17 -3 3 -9 2 -12 -2z"/>
    <path d="M2889 5383 c14 -27 14 -36 1 -28 -6 4 -7 -1 -3 -11 4 -11 8 -13 11 -6 2 7 7 10 11 8 16 -10 7 20 -12 39 -20 20 -20 20 -8 -2z"/>
    <path d="M7265 5390 c-3 -6 1 -7 9 -4 18 7 21 14 7 14 -6 0 -13 -4 -16 -10z"/>
    <path d="M7419 5383 c-13 -16 -12 -17 4 -4 9 7 17 15 17 17 0 8 -8 3 -21 -13z"/>
    <path d="M5732 5354 c-35 -15 -87 -48 -115 -74 -146 -132 -214 -169 -321 -177 -66 -5 -94 -1 -271 36 -16 3 -68 6 -115 6 -105 0 -162 -25 -264 -115 -115 -102 -178 -134 -288 -144 -60 -6 -168 16 -263 54 -27 11 -86 29 -130 41 -272 73 -573 -78 -475 -239 36 -59 105 -72 190 -35 132 56 177 55 386 -15 238 -79 314 -78 519 9 125 52 169 62 245 55 77 -7 96 -11 164 -30 28 -8 73 -18 100 -22 40 -5 47 -4 41 7 -6 11 -5 12 6 2 18 -17 29 -16 29 3 0 8 -4 13 -9 9 -5 -3 -13 -1 -16 5 -4 6 -1 9 7 8 8 -2 12 4 10 16 -2 10 2 23 10 28 9 7 8 8 -7 6 -11 -2 -20 -9 -20 -16 0 -8 -8 -19 -17 -26 -10 -7 -16 -15 -13 -17 7 -8 -38 -4 -62 5 -13 4 -23 11 -23 16 0 5 12 3 26 -5 35 -18 81 -1 61 23 -9 13 -9 14 1 8 6 -4 12 -3 12 3 0 5 -6 11 -12 14 -7 2 -1 6 14 9 16 3 36 0 45 -7 15 -11 15 -15 4 -29 -11 -13 -11 -16 1 -16 8 0 23 -7 34 -15 18 -14 17 -14 -9 -5 -37 13 -36 13 -30 -11 6 -20 11 -21 62 -15 104 12 152 44 304 198 115 115 151 145 201 168 76 34 143 43 226 29 100 -17 200 -15 200 4 0 4 5 5 10 2 6 -3 10 -1 10 5 0 7 7 10 15 6 12 -4 13 -2 7 12 -5 9 -7 23 -4 31 3 8 0 11 -6 7 -6 -4 -20 -1 -31 6 -15 9 -23 9 -35 -1 -11 -9 -16 -10 -16 -2 0 6 5 11 11 11 5 0 7 5 4 10 -3 6 -1 10 5 10 6 0 8 6 4 13 -4 6 1 5 12 -5 16 -14 21 -14 32 -2 16 18 15 27 -3 20 -8 -3 -22 2 -31 11 -11 11 -13 18 -5 21 16 5 14 22 -3 22 -8 0 -23 11 -33 24 -38 48 -99 69 -213 73 -95 3 -111 1 -168 -23z m-567 -384 c-3 -5 -12 -10 -18 -10 -7 0 -6 4 3 10 19 12 23 12 15 0z m-124 -17 c13 -16 12 -17 -3 -4 -17 13 -22 21 -14 21 2 0 10 -8 17 -17z m-16 -22 c3 -5 2 -12 -3 -15 -5 -3 -9 1 -9 9 0 17 3 19 12 6z m83 -15 c7 -4 12 -2 12 3 0 17 13 13 43 -14 15 -14 27 -21 27 -16 0 6 7 8 15 5 22 -9 18 -20 -7 -20 -13 0 -33 11 -45 24 -12 13 -24 19 -27 13 -6 -9 -61 1 -73 13 -8 8 41 1 55 -8z m22 -38 c0 -4 -4 -8 -9 -8 -6 0 -12 4 -15 8 -3 5 1 9 9 9 8 0 15 -4 15 -9z m-50 -8 c8 -5 11 -10 5 -10 -5 0 -17 5 -25 10 -8 5 -10 10 -5 10 6 0 17 -5 25 -10z m44 -22 c-3 -4 -9 -8 -15 -8 -5 0 -9 4 -9 8 0 5 7 9 15 9 8 0 12 -4 9 -9z m61 2 c-3 -5 -12 -10 -18 -10 -7 0 -6 4 3 10 19 12 23 12 15 0z m100 0 c3 -5 1 -10 -4 -10 -6 0 -11 5 -11 10 0 6 2 10 4 10 3 0 8 -4 11 -10z m-65 -10 c0 -5 -4 -10 -10 -10 -5 0 -10 5 -10 10 0 6 5 10 10 10 6 0 10 -4 10 -10z m-236 -32 c-3 -5 -10 -6 -15 -2 -5 3 -16 1 -24 -6 -10 -8 -15 -8 -21 1 -4 7 -3 9 3 6 6 -4 18 2 28 13 14 15 21 17 26 8 4 -7 5 -16 3 -20z m313 16 c-3 -3 -12 -4 -19 -1 -8 3 -5 6 6 6 11 1 17 -2 13 -5z m-236 -32 c-6 -2 -7 -10 -4 -18 4 -11 8 -12 13 -4 5 8 10 7 18 -3 9 -11 8 -13 -6 -12 -9 0 -26 6 -37 12 -13 8 -25 8 -38 1 -15 -7 -23 -6 -33 6 -8 9 -9 11 -2 6 18 -15 28 -12 22 8 -4 11 -3 13 3 5 7 -10 18 -11 52 -4 2 1 -3 8 -10 18 -13 15 -12 15 9 2 12 -8 18 -15 13 -17z m36 7 c2 -16 -1 -19 -9 -11 -5 5 -7 15 -4 21 10 15 12 14 13 -10z m148 -20 c4 -11 10 -17 15 -14 5 3 12 0 16 -7 4 -7 4 -10 -1 -6 -4 4 -14 3 -22 -4 -11 -9 -19 -7 -36 10 -12 12 -16 22 -9 22 7 0 12 -5 12 -11 0 -5 5 -7 11 -3 8 4 4 13 -12 25 -24 18 -24 18 -2 13 12 -4 25 -15 28 -25z"/>
    <path d="M2786 5353 c-6 -14 -5 -15 5 -6 7 7 10 15 7 18 -3 3 -9 -2 -12 -12z"/>
    <path d="M3094 5363 c15 -4 16 -7 5 -14 -11 -7 -10 -9 4 -9 24 0 16 24 -9 27 -18 2 -18 2 0 -4z"/>
    <path d="M2990 5340 c-6 -11 -8 -20 -6 -20 3 0 10 9 16 20 6 11 8 20 6 20 -3 0 -10 -9 -16 -20z"/>
    <path d="M2865 5309 c-4 -6 -5 -12 -2 -15 2 -3 7 2 10 11 7 17 1 20 -8 4z"/>
    <path d="M3212 5300 c-7 -11 -9 -20 -4 -20 4 0 13 9 20 20 7 11 9 20 4 20 -4 0 -13 -9 -20 -20z"/>
    <path d="M7396 5305 c-3 -8 0 -17 6 -21 6 -4 8 -3 4 4 -3 5 -1 12 6 14 8 3 9 6 1 11 -6 4 -13 0 -17 -8z"/>
    <path d="M2968 5293 c7 -3 16 -2 19 1 4 3 -2 6 -13 5 -11 0 -14 -3 -6 -6z"/>
    <path d="M7240 5290 c-9 -6 -10 -10 -3 -10 6 0 15 5 18 10 8 12 4 12 -15 0z"/>
    <path d="M6202 5274 c-7 -8 -8 -14 -3 -14 10 0 25 19 20 25 -2 1 -10 -3 -17 -11z"/>
    <path d="M3376 5271 c-4 -5 -2 -12 3 -15 5 -4 12 -2 15 3 4 5 2 12 -3 15 -5 4 -12 2 -15 -3z"/>
    <path d="M3474 5243 c3 -3 17 -7 32 -9 14 -1 23 0 20 3 -3 4 -18 8 -32 9 -14 2 -24 0 -20 -3z"/>
    <path d="M6165 5240 c4 -6 11 -8 16 -5 14 9 11 15 -7 15 -8 0 -12 -5 -9 -10z"/>
    <path d="M6205 5240 c3 -5 8 -10 11 -10 2 0 4 5 4 10 0 6 -5 10 -11 10 -5 0 -7 -4 -4 -10z"/>
    <path d="M7300 5239 c0 -5 5 -7 10 -4 6 3 10 8 10 11 0 2 -4 4 -10 4 -5 0 -10 -5 -10 -11z"/>
    <path d="M7356 5238 c3 -5 10 -6 15 -3 13 9 11 12 -6 12 -8 0 -12 -4 -9 -9z"/>
    <path d="M6245 5230 c3 -5 8 -10 11 -10 2 0 4 5 4 10 0 6 -5 10 -11 10 -5 0 -7 -4 -4 -10z"/>
    <path d="M2973 5205 c0 -8 4 -15 9 -15 4 0 8 7 8 15 0 8 -4 15 -8 15 -5 0 -9 -7 -9 -15z"/>
    <path d="M6224 5211 c3 -5 -5 -12 -19 -15 -14 -4 -25 -11 -25 -16 0 -14 17 -13 26 1 4 8 10 6 17 -6 6 -12 6 -20 -3 -25 -9 -6 -7 -11 8 -19 17 -9 22 -8 27 9 3 11 15 20 26 20 10 0 19 5 19 11 0 5 -4 8 -10 4 -13 -8 -60 5 -60 17 0 6 7 8 15 4 8 -3 15 -1 15 3 0 5 -7 12 -16 15 -21 8 -26 8 -20 -3z m30 -56 c-4 -8 -8 -15 -10 -15 -2 0 -4 7 -4 15 0 8 4 15 10 15 5 0 7 -7 4 -15z"/>
    <path d="M3766 5201 c-3 -5 1 -14 8 -20 12 -10 13 -8 9 8 -6 23 -9 25 -17 12z"/>
    <path d="M6310 5195 c0 -8 2 -15 4 -15 2 0 6 7 10 15 3 8 1 15 -4 15 -6 0 -10 -7 -10 -15z"/>
    <path d="M7196 5183 c-6 -14 -5 -15 5 -6 7 7 10 15 7 18 -3 3 -9 -2 -12 -12z"/>
    <path d="M2927 5149 c7 -7 15 -10 18 -7 3 3 -2 9 -12 12 -14 6 -15 5 -6 -5z"/>
    <path d="M7134 5133 c-1 -13 -1 -23 0 -21 1 2 7 10 14 19 10 13 10 18 0 22 -8 3 -14 -5 -14 -20z"/>
    <path d="M7289 5143 c-13 -16 -12 -17 4 -4 9 7 17 15 17 17 0 8 -8 3 -21 -13z"/>
    <path d="M7195 5131 c-6 -11 13 -26 22 -17 4 3 1 6 -6 6 -7 0 -9 5 -6 10 3 6 4 10 1 10 -3 0 -7 -4 -11 -9z"/>
    <path d="M6569 5082 c-14 -9 -45 -39 -70 -67 -125 -140 -190 -165 -427 -165 -211 0 -266 -23 -422 -174 -159 -155 -211 -188 -341 -216 -72 -16 -253 -8 -334 15 -33 9 -85 17 -116 18 -66 2 -102 -18 -126 -69 -15 -31 -16 -39 -3 -77 13 -37 23 -46 80 -74 188 -95 510 -100 705 -13 90 40 136 74 251 182 54 52 116 105 138 118 55 33 136 47 261 44 194 -5 320 45 465 183 49 46 99 100 110 119 41 65 22 147 -41 180 -38 19 -98 18 -130 -4z"/>
    <path d="M7230 5083 c-13 -15 -12 -16 4 -10 10 4 22 7 27 7 5 0 9 5 9 10 0 15 -23 11 -40 -7z"/>
    <path d="M7110 5050 c0 -5 5 -10 11 -10 5 0 7 5 4 10 -3 6 -8 10 -11 10 -2 0 -4 -4 -4 -10z"/>
    <path d="M6850 4809 c0 -5 5 -7 10 -4 6 3 10 8 10 11 0 2 -4 4 -10 4 -5 0 -10 -5 -10 -11z"/>
    <path d="M6915 4790 c3 -5 8 -10 11 -10 2 0 4 5 4 10 0 6 -5 10 -11 10 -5 0 -7 -4 -4 -10z"/>
    <path d="M6995 4760 c3 -5 11 -10 16 -10 6 0 7 5 4 10 -3 6 -11 10 -16 10 -6 0 -7 -4 -4 -10z"/>
    <path d="M6870 4750 c-9 -6 -10 -10 -3 -10 6 0 15 5 18 10 8 12 4 12 -15 0z"/>
    <path d="M6948 4743 c7 -3 16 -2 19 1 4 3 -2 6 -13 5 -11 0 -14 -3 -6 -6z"/>
    <path d="M6896 4725 c4 -8 11 -15 16 -15 6 0 5 6 -2 15 -7 8 -14 15 -16 15 -2 0 -1 -7 2 -15z"/>
    <path d="M6930 4711 c0 -5 7 -11 15 -15 8 -3 15 -1 15 3 0 5 -7 11 -15 15 -8 3 -15 1 -15 -3z"/>
    <path d="M6777 4667 c-3 -7 3 -13 14 -13 13 0 15 3 7 13 -6 7 -12 13 -13 13 -2 0 -5 -6 -8 -13z"/>
    <path d="M6860 4660 c-13 -8 -12 -10 3 -10 9 0 17 5 17 10 0 12 -1 12 -20 0z"/>
    <path d="M6655 4640 c-3 -6 1 -7 9 -4 18 7 21 14 7 14 -6 0 -13 -4 -16 -10z"/>
    <path d="M6750 4630 c-9 -6 -10 -10 -3 -10 6 0 15 5 18 10 8 12 4 12 -15 0z"/>
    <path d="M6690 4562 c0 -5 12 -14 26 -20 14 -7 23 -8 19 -2 -9 15 -45 32 -45 22z"/>
    <path d="M6626 4546 c3 -8 13 -17 22 -21 13 -5 13 -2 -3 15 -21 24 -26 25 -19 6z"/>
    <path d="M6710 4517 c0 -17 -10 -21 -40 -18 -13 2 -13 1 0 -8 8 -6 20 -11 27 -11 13 0 28 38 19 47 -3 4 -6 -1 -6 -10z"/>
    <path d="M6531 4503 c-1 -8 -8 -10 -18 -6 -15 6 -16 5 -3 -9 16 -18 35 -8 27 14 -4 9 -6 9 -6 1z"/>
    <path d="M6603 4492 c-8 -5 -9 -13 -3 -22 8 -13 10 -12 10 3 0 10 5 15 10 12 6 -3 10 -1 10 4 0 13 -10 14 -27 3z"/>
    <path d="M6640 4468 c0 -4 7 -8 15 -8 8 0 15 4 15 8 0 5 -7 9 -15 9 -8 0 -15 -4 -15 -9z"/>
    <path d="M6497 4459 c7 -7 15 -10 18 -7 3 3 -2 9 -12 12 -14 6 -15 5 -6 -5z"/>
    <path d="M6546 4462 c-3 -4 4 -9 15 -9 23 -2 25 3 4 10 -8 4 -16 3 -19 -1z"/>
    <path d="M6460 4439 c0 -5 5 -7 10 -4 6 3 10 8 10 11 0 2 -4 4 -10 4 -5 0 -10 -5 -10 -11z"/>
    <path d="M6638 4443 c7 -3 16 -2 19 1 4 3 -2 6 -13 5 -11 0 -14 -3 -6 -6z"/>
    <path d="M6340 4416 c0 -2 7 -7 16 -10 8 -3 12 -2 9 4 -6 10 -25 14 -25 6z"/>
    <path d="M6500 4410 c0 -5 5 -10 10 -10 6 0 10 5 10 10 0 6 -4 10 -10 10 -5 0 -10 -4 -10 -10z"/>
    <path d="M6465 4400 c-9 -14 14 -52 27 -44 7 5 6 11 -5 19 -19 14 -23 30 -5 19 7 -4 8 -3 4 4 -9 15 -13 15 -21 2z"/>
    <path d="M6347 4379 c7 -7 15 -10 18 -7 3 3 -2 9 -12 12 -14 6 -15 5 -6 -5z"/>
    <path d="M6276 4364 c-5 -14 -4 -15 9 -4 8 7 22 10 30 6 9 -3 13 -2 10 4 -10 16 -42 12 -49 -6z"/>
    <path d="M6398 4353 c7 -3 16 -2 19 1 4 3 -2 6 -13 5 -11 0 -14 -3 -6 -6z"/>
    <path d="M6046 4333 c-6 -14 -5 -15 5 -6 7 7 10 15 7 18 -3 3 -9 -2 -12 -12z"/>
    <path d="M6336 4341 c-11 -17 6 -41 28 -40 21 0 21 0 -1 9 -15 6 -21 15 -17 25 7 16 -1 21 -10 6z"/>
    <path d="M6210 4330 c-9 -6 -10 -10 -3 -10 6 0 15 5 18 10 8 12 4 12 -15 0z"/>
    <path d="M6293 4330 c3 -16 21 -14 25 2 3 10 2 10 -6 -1 -7 -9 -11 -10 -15 -2 -4 7 -5 8 -4 1z"/>
    <path d="M6255 4320 c-3 -5 -3 -10 2 -10 4 0 2 -4 -6 -9 -9 -6 -5 -8 14 -8 24 0 25 1 10 9 -14 8 -15 12 -4 19 9 6 10 9 2 9 -6 0 -15 -4 -18 -10z"/>
    <path d="M6220 4300 c-6 -11 -8 -20 -6 -20 3 0 10 9 16 20 6 11 8 20 6 20 -3 0 -10 -9 -16 -20z"/>
    <path d="M6138 4296 c-10 -7 -15 -16 -12 -19 4 -3 13 1 21 9 20 19 13 26 -9 10z"/>
    <path d="M6310 4280 c-9 -6 -10 -10 -3 -10 6 0 15 5 18 10 8 12 4 12 -15 0z"/>
    <path d="M6178 4263 c7 -3 16 -2 19 1 4 3 -2 6 -13 5 -11 0 -14 -3 -6 -6z"/>
    <path d="M6075 4250 c-3 -5 -1 -10 4 -10 6 0 11 5 11 10 0 6 -2 10 -4 10 -3 0 -8 -4 -11 -10z"/>
    <path d="M6219 4243 c-13 -16 -12 -17 4 -4 16 13 21 21 13 21 -2 0 -10 -8 -17 -17z"/>
    <path d="M6270 4249 c0 -5 5 -7 10 -4 6 3 10 8 10 11 0 2 -4 4 -10 4 -5 0 -10 -5 -10 -11z"/>
    <path d="M6186 4237 c3 -10 9 -15 12 -12 3 3 0 11 -7 18 -10 9 -11 8 -5 -6z"/>
    <path d="M6111 4203 c-1 -24 -5 -31 -16 -27 -8 4 -15 1 -15 -4 0 -9 37 -9 46 1 2 2 -1 16 -5 33 l-9 29 -1 -32z"/>
    <path d="M5720 4170 c0 -5 5 -10 11 -10 5 0 7 5 4 10 -3 6 -8 10 -11 10 -2 0 -4 -4 -4 -10z"/>
    <path d="M5895 4130 c3 -5 8 -10 11 -10 2 0 4 5 4 10 0 6 -5 10 -11 10 -5 0 -7 -4 -4 -10z"/>
    <path d="M5549 4093 c-13 -16 -12 -17 4 -4 9 7 17 15 17 17 0 8 -8 3 -21 -13z"/>
    <path d="M5720 4099 c0 -5 5 -7 10 -4 6 3 10 8 10 11 0 2 -4 4 -10 4 -5 0 -10 -5 -10 -11z"/>
    <path d="M4946 3527 c-9 -15 -23 -38 -30 -51 -19 -31 -13 -36 46 -36 47 0 49 1 42 23 -3 12 -14 37 -24 56 l-17 35 -17 -27z"/>
    <path d="M9361 2761 c-13 -8 -13 -12 0 -27 9 -11 9 -15 2 -10 -7 4 -13 3 -13 -2 0 -10 140 -131 198 -171 18 -13 36 -20 40 -17 3 4 0 11 -8 15 -8 5 -36 24 -62 42 -50 36 -62 69 -35 99 10 12 9 12 -5 1 -15 -11 -18 -11 -18 3 0 9 -5 16 -11 16 -5 0 -7 -5 -3 -12 5 -7 3 -8 -5 -4 -7 5 -10 14 -7 21 2 7 -2 16 -10 19 -10 4 -12 2 -8 -6 4 -6 -4 -3 -18 8 -14 10 -24 22 -21 27 6 9 1 9 -16 -2z"/>
    <path d="M9600 2540 c-15 -27 -3 -113 17 -125 10 -5 40 -31 68 -56 27 -25 93 -81 145 -124 52 -43 97 -81 100 -85 9 -12 257 -218 284 -235 l26 -17 0 80 c0 48 -4 84 -11 88 -8 4 -7 9 2 15 10 6 9 10 -6 15 -27 11 -65 50 -57 59 4 4 -5 6 -20 3 -21 -4 -31 1 -48 24 -15 20 -28 28 -41 25 -10 -3 -16 -1 -13 4 3 5 -2 12 -10 15 -9 3 -16 10 -16 16 0 5 5 6 12 2 7 -4 8 -3 4 5 -4 6 -11 9 -16 6 -4 -3 -10 -2 -13 2 -2 5 -2 2 -1 -4 2 -7 -1 -13 -6 -13 -6 0 -10 4 -10 10 0 16 -33 49 -43 43 -5 -3 -6 4 -2 16 3 12 2 21 -3 21 -6 0 -12 -6 -15 -12 -3 -10 -7 -10 -20 1 -9 7 -14 17 -12 22 3 4 -4 13 -15 19 -11 6 -20 8 -20 5 0 -4 -7 0 -15 9 -8 8 -15 19 -15 24 0 16 -26 21 -40 9 -10 -10 -12 -8 -6 6 4 14 0 20 -14 24 -11 3 -17 9 -14 14 3 5 -2 9 -10 9 -9 0 -16 4 -16 10 0 5 -16 16 -35 24 -19 8 -35 22 -35 30 0 9 -7 16 -15 16 -8 0 -15 5 -15 10 0 17 -19 11 -30 -10z"/>
    <path d="M8109 2355 c-1 -5 -1 -13 0 -17 0 -5 -3 -8 -9 -8 -5 0 -10 5 -10 10 0 6 -12 10 -26 10 -14 0 -23 -4 -19 -10 3 -5 1 -10 -4 -10 -6 0 -11 4 -11 10 0 15 -36 6 -58 -13 -23 -21 -32 -22 -32 -2 0 8 -4 15 -9 15 -14 0 -31 -26 -23 -35 4 -5 -5 -1 -20 8 -24 15 -28 15 -28 2 0 -8 5 -15 12 -15 6 0 9 -3 6 -6 -3 -3 -22 2 -42 10 -20 8 -34 11 -31 6 4 -6 -7 -8 -24 -6 -18 2 -28 -1 -25 -6 4 -6 -1 -8 -12 -4 -22 6 -38 -2 -47 -24 -4 -12 -6 -11 -6 3 -1 9 -5 17 -11 17 -9 0 -14 -14 -11 -32 0 -4 -7 -4 -16 -1 -11 4 -14 3 -9 -5 4 -7 3 -12 -2 -12 -5 0 -14 10 -20 23 -10 21 -11 21 -11 2 -2 -38 -41 -62 -41 -25 0 11 -5 20 -11 20 -5 0 -7 -5 -3 -11 4 -8 -1 -9 -17 -4 -19 5 -21 4 -9 -4 13 -9 12 -11 -5 -12 -11 -1 -28 -1 -38 -1 -10 1 -16 -2 -13 -7 4 -5 0 -11 -6 -14 -8 -3 -3 -9 12 -15 14 -6 18 -11 10 -11 -19 -1 -36 10 -43 29 -4 10 -6 8 -6 -7 -1 -13 4 -23 10 -23 7 0 1 -9 -13 -19 -25 -20 -43 -22 -67 -7 -11 7 -13 5 -8 -7 4 -12 2 -14 -10 -10 -12 5 -15 2 -10 -10 7 -18 -8 -24 -18 -7 -4 6 -16 8 -27 4 -15 -4 -18 -3 -13 6 5 8 4 11 -3 6 -13 -8 14 -66 30 -66 6 0 8 -3 5 -7 -4 -3 -15 1 -24 9 -20 17 -66 31 -58 18 3 -5 -4 -11 -15 -15 -11 -4 -18 -10 -15 -15 3 -5 -7 -15 -22 -23 l-27 -14 27 0 c15 0 27 5 27 12 0 16 43 13 66 -5 16 -14 17 -13 11 3 -8 20 2 22 26 5 13 -10 14 -17 6 -28 -9 -12 -10 -12 -5 3 4 12 2 17 -6 14 -7 -2 -12 -10 -11 -16 2 -6 -2 -11 -7 -11 -6 0 -10 4 -10 10 0 5 -8 7 -17 4 -15 -5 -16 -4 -3 5 12 9 10 11 -12 11 -30 0 -50 -36 -27 -50 16 -10 21 -40 7 -40 -6 0 -8 7 -5 14 4 9 -2 17 -14 21 -10 4 -17 10 -15 14 3 4 -7 8 -20 9 -21 2 -23 -1 -14 -17 7 -14 6 -20 -5 -25 -8 -3 -17 -1 -20 5 -4 5 -11 6 -17 3 -6 -4 -8 1 -3 16 6 20 5 21 -8 9 -9 -9 -12 -18 -6 -23 12 -13 12 -39 -1 -31 -5 3 -10 2 -10 -4 0 -5 -9 -8 -20 -6 -11 2 -20 1 -21 -3 0 -4 -2 -15 -4 -25 -2 -9 1 -15 6 -11 5 3 9 1 9 -5 0 -17 -24 -18 -40 -1 -8 9 -12 11 -8 5 4 -6 3 -16 -3 -22 -7 -7 -6 -12 5 -16 8 -3 18 -2 21 3 4 6 11 10 16 10 6 0 8 -4 4 -9 -8 -15 15 -25 28 -12 8 8 8 11 -1 11 -20 0 -14 27 12 55 15 16 27 22 31 15 3 -5 2 -10 -4 -10 -5 0 -9 -9 -8 -20 1 -22 21 -22 23 1 1 8 2 18 3 23 0 6 6 5 13 -2 8 -8 8 -15 0 -25 -16 -19 -3 -30 17 -14 14 10 14 10 3 -4 -10 -13 -10 -19 2 -28 18 -15 17 -50 -2 -73 -8 -10 -11 -22 -6 -30 6 -10 4 -10 -9 1 -15 12 -16 15 -2 25 17 13 32 72 15 61 -5 -3 -10 0 -10 8 0 10 -8 14 -22 11 -13 -2 -17 -2 -10 2 6 3 12 10 12 15 0 6 -5 7 -10 4 -6 -4 -18 -1 -26 6 -8 6 -18 9 -22 5 -4 -4 1 -13 11 -20 16 -13 25 -42 9 -32 -4 2 -14 1 -22 -4 -9 -6 -18 -3 -27 8 -12 16 -13 15 -19 -6 -5 -18 -12 -22 -27 -18 -19 5 -19 4 -4 -12 16 -15 18 -15 32 3 12 17 14 17 15 4 0 -20 47 -32 54 -14 3 9 -2 11 -17 7 -20 -5 -20 -4 -8 11 10 13 17 14 27 7 9 -8 15 -6 24 7 11 17 11 17 6 -1 -5 -13 -2 -17 9 -12 9 3 15 0 15 -9 0 -18 -17 -28 -25 -15 -9 15 -25 12 -25 -6 0 -8 5 -12 10 -9 6 3 10 1 10 -4 0 -14 -6 -14 -32 0 -27 14 -35 3 -14 -20 15 -16 15 -19 1 -31 -10 -8 -15 -9 -15 -1 0 6 5 11 12 11 22 0 0 11 -31 16 -18 3 -31 1 -31 -5 0 -6 6 -11 14 -11 8 0 18 -4 21 -10 4 -6 -1 -7 -12 -3 -16 6 -16 5 -4 -10 7 -9 11 -17 7 -17 -3 0 -13 11 -22 25 -13 20 -14 28 -4 40 7 8 16 12 21 9 5 -3 9 0 9 5 0 17 -27 13 -34 -4 -3 -8 -10 -15 -16 -15 -8 0 -8 6 0 20 11 21 4 25 -24 14 -9 -3 -16 -10 -16 -15 0 -4 7 -6 15 -2 9 3 15 2 13 -3 -1 -5 3 -19 10 -32 7 -12 9 -22 5 -21 -4 1 -17 -2 -28 -7 -21 -10 -28 -54 -10 -66 17 -13 47 -9 40 5 -4 6 0 4 8 -6 9 -10 18 -18 22 -17 4 1 10 -2 13 -6 4 -4 2 -4 -4 -1 -13 7 -37 -40 -28 -54 3 -5 -6 -4 -20 3 -27 12 -33 23 -17 32 5 4 11 0 14 -6 2 -7 7 -10 11 -7 13 12 -7 41 -25 36 -11 -3 -19 0 -19 6 0 7 -5 5 -10 -3 -6 -9 -10 -10 -10 -3 0 6 -9 11 -19 10 -11 0 -17 -5 -15 -9 3 -5 10 -6 15 -2 5 3 9 2 8 -3 -3 -20 2 -25 15 -14 10 8 16 9 21 1 3 -5 2 -10 -4 -10 -6 0 -8 -7 -5 -15 4 -8 1 -15 -6 -15 -6 0 -8 5 -5 10 3 6 2 10 -4 10 -19 0 -17 -25 3 -38 12 -8 14 -11 4 -8 -13 4 -16 -2 -14 -27 2 -19 -3 -39 -12 -47 -14 -13 -15 -12 -9 3 6 15 4 16 -13 7 -15 -8 -26 -6 -47 7 -15 10 -24 12 -20 6 8 -12 -4 -18 -27 -14 -5 1 -4 -5 3 -13 7 -8 10 -25 7 -38 -3 -13 -3 -17 0 -10 3 6 10 10 15 7 5 -4 6 1 3 9 -6 16 10 23 19 9 2 -5 2 -2 1 5 -4 16 13 16 19 -1 7 -19 -9 -42 -30 -42 -10 0 -19 -9 -21 -20 -2 -11 -11 -28 -20 -37 -9 -11 -11 -18 -4 -18 7 0 12 4 12 8 0 5 7 9 15 9 18 0 19 -11 5 -38 -8 -15 -7 -19 5 -19 22 0 18 -15 -5 -17 -11 -1 -20 2 -20 8 0 5 -8 9 -17 9 -15 0 -14 -2 3 -15 12 -8 31 -13 43 -10 11 2 23 0 26 -5 3 -5 13 -7 23 -4 9 2 5 -2 -10 -9 -20 -9 -25 -16 -18 -27 7 -11 4 -17 -8 -22 -16 -6 -16 -7 1 -7 9 -1 17 -6 17 -12 0 -6 -7 -9 -15 -5 -8 3 -15 1 -15 -3 0 -7 23 -21 35 -21 1 0 5 14 7 30 3 17 1 30 -4 30 -4 0 -8 5 -8 11 0 7 9 9 21 6 21 -6 21 -3 17 69 -5 83 -5 83 72 126 110 61 126 70 137 86 7 8 16 13 19 9 4 -3 19 2 33 12 14 9 55 32 91 50 36 19 93 50 128 70 35 20 89 50 120 66 31 17 233 127 447 244 486 267 501 274 523 268 9 -3 116 -39 237 -82 121 -42 225 -77 230 -79 43 -10 50 -23 53 -106 3 -67 0 -85 -14 -101 -9 -10 -21 -19 -25 -19 -4 0 -11 41 -15 91 l-7 91 -46 20 c-90 39 -395 138 -424 138 -20 0 -85 -30 -181 -84 -83 -46 -275 -151 -426 -234 -884 -482 -910 -497 -910 -531 1 -82 31 -365 40 -376 16 -20 146 -72 227 -91 83 -21 292 -23 378 -5 227 47 391 140 609 343 180 168 214 192 466 315 129 63 262 135 296 158 142 101 207 215 172 304 l-16 40 28 6 c29 6 36 35 10 43 -7 3 -10 0 -6 -7 4 -6 3 -11 -2 -11 -6 0 -12 7 -16 15 -3 8 0 15 7 15 8 0 8 3 -2 9 -11 7 -11 10 0 15 18 8 -21 0 -43 -9 -11 -4 -18 -3 -18 5 0 6 5 8 12 4 8 -5 9 -2 5 10 -6 14 -3 17 8 12 13 -5 14 -2 4 17 -15 28 -24 37 -16 15 4 -13 0 -15 -21 -12 -15 3 -33 5 -39 6 -15 2 -18 18 -3 18 19 0 -2 29 -23 32 -12 2 -21 9 -20 16 4 17 -4 15 -25 -6 -10 -10 -17 -25 -15 -33 2 -8 -3 -3 -11 11 -8 14 -15 33 -16 42 0 9 -4 19 -8 22 -9 6 -8 -36 2 -52 5 -8 2 -10 -9 -6 -9 4 -14 13 -11 21 8 19 -2 35 -17 26 -16 -9 -57 -10 -57 -1 0 4 10 8 22 8 18 0 18 15 0 15 -4 0 -13 4 -19 8 -13 8 -14 7 -17 -15 0 -7 -10 -14 -21 -16 -16 -3 -17 -1 -5 7 13 9 13 11 -1 11 -9 0 -22 7 -29 15 -11 13 -15 12 -31 -6 -13 -16 -19 -18 -19 -8 0 8 5 20 12 27 9 9 9 12 0 12 -7 0 -12 -4 -12 -10 0 -5 -7 -10 -16 -10 -8 0 -13 4 -10 9 4 5 -3 7 -14 4 -21 -6 -28 13 -7 20 6 2 -2 4 -20 4 -18 0 -30 -4 -27 -9 3 -4 -2 -5 -10 -2 -9 3 -16 10 -16 14 0 5 -13 5 -29 0 -21 -6 -35 -4 -48 5 -14 10 -21 11 -32 2 -12 -10 -12 -9 -2 10 10 20 9 22 -6 16 -10 -4 -22 -11 -26 -17 -5 -6 -6 -1 -3 13 4 18 2 21 -7 12 -12 -12 -51 -16 -44 -3 3 4 -7 7 -23 8 -23 1 -27 -2 -22 -20 4 -20 4 -20 -10 -2 -10 13 -22 17 -37 13 -11 -3 -19 -1 -15 4 3 5 -1 9 -8 10 -7 0 -21 2 -30 4 -10 2 -18 0 -18 -5 0 -4 -7 -10 -14 -13 -9 -4 -13 -1 -10 6 5 14 -34 16 -55 3 -8 -5 -17 -3 -22 5 -5 8 -9 10 -10 4z m149 -30 c-3 -3 -9 2 -12 12 -6 14 -5 15 5 6 7 -7 10 -15 7 -18z m-233 -13 c-3 -3 -11 0 -18 7 -9 10 -8 11 6 5 10 -3 15 -9 12 -12z m-247 -32 c-7 -10 -14 -17 -17 -15 -4 4 18 35 25 35 2 0 -1 -9 -8 -20z m787 0 c3 -5 1 -10 -4 -10 -6 0 -11 5 -11 10 0 6 2 10 4 10 3 0 8 -4 11 -10z m-825 -4 c0 -2 -7 -6 -15 -10 -8 -3 -15 -1 -15 4 0 6 7 10 15 10 8 0 15 -2 15 -4z m-183 -72 c-9 -9 -28 6 -21 18 4 6 10 6 17 -1 6 -6 8 -13 4 -17z m-37 1 c0 -9 -6 -12 -16 -8 -13 5 -13 7 -2 14 17 11 18 11 18 -6z m1361 -12 c-8 -15 -10 -15 -11 -2 0 17 10 32 18 25 2 -3 -1 -13 -7 -23z m128 -32 c-6 -2 -18 4 -27 13 -15 15 -15 15 10 4 15 -7 23 -15 17 -17z m-1476 -18 c-3 -7 -9 -13 -14 -13 -5 0 -9 6 -9 13 0 8 6 14 14 14 8 0 12 -6 9 -14z m-143 -28 c0 -8 -7 -15 -15 -15 -13 0 -14 3 -3 15 16 18 18 18 18 0z m135 -14 c-3 -2 -11 2 -20 9 -12 10 -15 9 -15 -5 0 -10 -3 -16 -6 -12 -4 3 -4 13 0 22 5 13 9 13 25 3 11 -7 18 -14 16 -17z m-163 -30 c15 -6 17 -10 7 -10 -20 -1 -69 36 -69 52 1 7 9 2 19 -10 11 -13 30 -27 43 -32z m68 24 c0 -2 -9 -9 -20 -15 -12 -6 -20 -7 -20 -1 0 5 8 12 18 14 9 3 18 5 20 6 1 0 2 -1 2 -4z m-160 -25 c11 -7 6 -10 -20 -10 -26 0 -31 3 -20 10 8 5 17 10 20 10 3 0 12 -5 20 -10z m155 -20 c3 -5 2 -10 -4 -10 -5 0 -13 5 -16 10 -3 6 -2 10 4 10 5 0 13 -4 16 -10z m-68 -6 c-3 -3 -12 -4 -19 -1 -8 3 -5 6 6 6 11 1 17 -2 13 -5z m1203 -25 c30 -11 79 -28 108 -36 54 -17 65 -28 33 -38 -10 -3 -135 -72 -277 -154 -142 -81 -417 -239 -611 -349 -193 -111 -357 -202 -363 -202 -18 0 -250 84 -250 91 0 3 96 60 213 126 193 109 280 157 667 368 69 38 143 80 165 94 80 50 220 121 240 121 11 0 45 -9 75 -21z m-1317 -20 c4 -16 3 -18 -9 -8 -7 6 -11 15 -8 20 8 13 11 11 17 -12z m127 -1 c0 -6 -6 -5 -15 2 -8 7 -15 14 -15 16 0 2 7 1 15 -2 8 -4 15 -11 15 -16z m55 12 c3 -5 1 -10 -4 -10 -6 0 -11 5 -11 10 0 6 2 10 4 10 3 0 8 -4 11 -10z m-140 -30 c3 -5 2 -10 -4 -10 -6 0 -8 -6 -5 -14 3 -8 1 -16 -4 -19 -4 -3 -8 7 -8 24 0 29 9 38 21 19z m-84 -40 c20 0 4 -45 -16 -47 l-20 -3 20 9 c14 7 16 10 5 10 -11 1 -15 10 -14 29 2 35 5 41 11 20 2 -10 9 -18 14 -18z m199 16 c0 -2 -7 -7 -16 -10 -8 -3 -12 -2 -9 4 6 10 25 14 25 6z m-234 -19 c4 -4 -5 -7 -19 -7 -15 0 -27 4 -27 10 0 11 35 8 46 -3z m168 -23 c3 -8 2 -12 -4 -9 -6 3 -10 10 -10 16 0 14 7 11 14 -7z m-255 -15 c-7 -4 -17 -5 -22 -2 -5 3 -3 9 4 14 7 4 17 5 22 2 5 -3 3 -9 -4 -14z m171 -14 c-12 -14 -7 -19 13 -16 5 1 6 -3 2 -8 -5 -9 -35 -5 -35 4 0 13 14 35 22 35 6 0 5 -6 -2 -15z m50 0 c-9 -10 -9 -15 -1 -15 6 0 11 -5 11 -11 0 -5 -4 -8 -9 -5 -5 4 -11 0 -14 -6 -3 -7 -5 -2 -4 12 1 14 6 28 12 32 16 12 18 9 5 -7z m-103 -24 c0 -11 -5 -18 -9 -15 -4 3 -5 11 -1 19 7 21 12 19 10 -4z m1623 -79 l0 -77 -217 -114 c-268 -140 -316 -170 -471 -302 -242 -204 -333 -264 -465 -305 -71 -22 -72 -21 -81 84 -5 56 -4 78 6 88 7 7 78 51 158 97 145 84 620 360 800 465 52 30 131 76 175 103 44 26 83 45 87 43 5 -3 8 -40 8 -82z m-1580 57 c0 -5 -4 -8 -9 -5 -5 4 -12 0 -14 -6 -3 -8 -6 -6 -6 5 -1 9 6 17 14 17 8 0 15 -5 15 -11z m30 -13 c0 -2 -8 -10 -17 -17 -16 -13 -17 -12 -4 4 13 16 21 21 21 13z m-49 -46 c6 0 7 5 3 12 -4 7 -3 8 4 4 16 -9 3 -36 -14 -29 -8 3 -14 13 -13 22 0 10 2 11 6 4 2 -7 9 -13 14 -13z m-17 -46 c3 -8 2 -12 -4 -9 -6 3 -10 10 -10 16 0 14 7 11 14 -7z m-59 -6 c3 -3 -3 -8 -13 -10 -11 -3 -19 0 -19 7 0 13 21 14 32 3z m160 -18 c3 -5 1 -10 -4 -10 -6 0 -11 5 -11 10 0 6 2 10 4 10 3 0 8 -4 11 -10z m-150 -29 c11 -14 15 -21 8 -17 -11 6 -51 -10 -63 -26 -3 -4 -12 -3 -20 2 -12 8 -12 10 4 10 13 0 17 5 13 20 -3 11 -1 23 4 26 5 3 9 -4 9 -15 0 -12 5 -21 10 -21 10 0 14 14 10 40 -1 8 0 13 2 10 2 -3 12 -16 23 -29z m35 15 c-4 -4 -16 -4 -26 2 -16 9 -14 10 8 9 15 -1 23 -6 18 -11z m50 4 c0 -5 -2 -10 -4 -10 -3 0 -8 5 -11 10 -3 6 -1 10 4 10 6 0 11 -4 11 -10z m-247 -21 c-6 -6 -9 -17 -7 -24 3 -7 1 -16 -5 -20 -15 -9 -14 28 1 43 7 7 14 12 17 12 3 0 0 -5 -6 -11z m55 -9 c20 0 23 -3 12 -9 -8 -6 -18 -7 -24 -4 -5 3 -6 1 -2 -5 8 -14 -3 -15 -22 -4 -8 5 -10 16 -6 27 5 11 9 14 12 7 2 -7 16 -12 30 -12z m179 -5 c0 -10 -4 -12 -10 -6 -5 5 -17 7 -26 4 -14 -4 -14 -3 -1 6 21 15 37 14 37 -4z m28 5 c3 -5 1 -10 -4 -10 -6 0 -11 5 -11 10 0 6 2 10 4 10 3 0 8 -4 11 -10z m-175 -52 c0 -6 -6 -5 -15 2 -8 7 -15 14 -15 16 0 2 7 1 15 -2 8 -4 15 -11 15 -16z m37 -13 c-15 -16 -19 -13 -11 9 3 9 10 13 15 10 5 -3 3 -11 -4 -19z m147 -11 c3 -8 2 -12 -4 -9 -6 3 -10 10 -10 16 0 14 7 11 14 -7z m-174 -15 c0 -6 -4 -7 -10 -4 -5 3 -10 11 -10 16 0 6 5 7 10 4 6 -3 10 -11 10 -16z m-12 -19 c12 -1 11 -4 -7 -14 -17 -10 -20 -15 -10 -18 8 -3 10 -9 5 -14 -5 -5 -11 -4 -13 4 -3 6 -10 9 -16 5 -7 -4 -5 1 3 12 8 10 14 28 13 39 -1 15 0 16 3 4 3 -10 13 -18 22 -18z m142 9 c0 -6 -4 -7 -10 -4 -5 3 -10 11 -10 16 0 6 5 7 10 4 6 -3 10 -11 10 -16z m-50 -9 c0 -5 -7 -7 -15 -4 -8 4 -15 8 -15 10 0 2 7 4 15 4 8 0 15 -4 15 -10z m-172 -37 c-2 -10 7 -22 22 -30 14 -7 22 -13 18 -13 -3 0 -14 -3 -23 -6 -10 -4 -15 -2 -13 7 3 13 -1 14 -39 18 -15 2 -14 4 5 11 12 5 22 14 22 20 0 5 2 10 5 10 3 0 5 -8 3 -17z m82 -33 c0 -5 -2 -10 -4 -10 -3 0 -8 5 -11 10 -3 6 -1 10 4 10 6 0 11 -4 11 -10z m-90 -21 c0 -5 0 -12 0 -16 1 -13 -29 -11 -34 2 -3 10 0 12 12 8 15 -6 15 -5 3 10 -12 15 -12 17 3 11 9 -3 16 -10 16 -15z m-135 -19 c-3 -5 -11 -10 -16 -10 -6 0 -7 5 -4 10 3 6 11 10 16 10 6 0 7 -4 4 -10z m45 -10 c0 -5 -5 -10 -11 -10 -5 0 -7 5 -4 10 3 6 8 10 11 10 2 0 4 -4 4 -10z m40 -21 c0 -4 -6 -9 -13 -12 -8 -3 -14 0 -14 7 0 7 6 13 14 13 7 0 13 -4 13 -8z m-28 -54 c-3 -5 -7 -4 -10 3 -5 16 -22 5 -18 -11 1 -7 1 -9 -1 -4 -3 4 -9 4 -15 1 -5 -3 -2 -14 9 -26 9 -11 13 -19 8 -18 -22 5 -27 -1 -15 -15 7 -8 16 -13 20 -10 5 3 6 -4 3 -15 -3 -11 -13 -20 -22 -19 -10 0 -11 2 -4 6 10 4 10 9 1 26 -18 33 -17 65 4 83 10 10 18 27 18 38 0 19 1 19 14 -4 7 -14 10 -29 8 -35z m335 -181 c65 -26 121 -50 125 -53 5 -5 13 -69 22 -189 0 -10 -3 -16 -9 -15 -5 1 -32 4 -58 6 -53 6 -163 41 -188 60 -20 15 -38 237 -20 237 6 0 64 -21 128 -46z"/>
    <path d="M7950 2329 c0 -5 5 -7 10 -4 6 3 10 8 10 11 0 2 -4 4 -10 4 -5 0 -10 -5 -10 -11z"/>
    <path d="M7830 2320 c0 -5 5 -10 10 -10 6 0 10 5 10 10 0 6 -4 10 -10 10 -5 0 -10 -4 -10 -10z"/>
    <path d="M7635 2270 c-3 -6 1 -7 9 -4 18 7 21 14 7 14 -6 0 -13 -4 -16 -10z"/>
    <path d="M8765 2270 c-3 -6 1 -7 9 -4 18 7 21 14 7 14 -6 0 -13 -4 -16 -10z"/>
    <path d="M7580 2251 c0 -25 6 -27 13 -6 4 8 2 17 -3 20 -6 4 -10 -3 -10 -14z"/>
    <path d="M8930 2200 c0 -5 5 -10 11 -10 5 0 7 5 4 10 -3 6 -8 10 -11 10 -2 0 -4 -4 -4 -10z"/>
    <path d="M7369 2171 c8 -5 21 -7 29 -3 10 3 13 1 8 -6 -4 -7 -3 -12 3 -12 12 0 25 20 14 21 -51 7 -66 7 -54 0z"/>
    <path d="M9048 2158 c-4 -10 -1 -19 8 -22 21 -8 24 -8 24 5 0 5 -4 8 -9 4 -5 -3 -11 3 -13 12 -3 16 -4 17 -10 1z"/>
    <path d="M7060 1966 c0 -2 7 -7 16 -10 8 -3 12 -2 9 4 -6 10 -25 14 -25 6z"/>
    <path d="M9280 1950 c-3 -75 -11 -116 -30 -154 -12 -26 -26 -44 -31 -41 -5 4 -6 0 -3 -8 7 -19 -101 -117 -196 -180 -41 -26 -156 -88 -255 -137 -229 -112 -274 -142 -420 -280 -149 -139 -177 -162 -292 -238 -129 -87 -258 -142 -388 -166 -16 -3 -43 -8 -60 -12 -53 -10 -308 -13 -374 -3 -35 5 -66 7 -68 5 -6 -5 125 -66 192 -89 76 -25 285 -30 385 -8 57 13 180 53 234 76 15 6 17 5 11 -5 -6 -9 -4 -11 4 -5 7 4 58 7 112 6 118 -2 158 12 234 84 65 62 112 82 218 94 107 12 132 25 210 108 76 80 115 101 212 113 41 5 92 18 112 29 43 22 120 81 107 81 -5 0 -1 5 9 11 9 5 17 17 17 25 0 8 5 12 10 9 6 -3 10 2 10 13 0 10 11 31 25 46 14 15 25 34 25 42 0 8 5 12 10 9 6 -4 10 7 10 24 0 17 3 30 8 30 20 -3 33 2 30 13 -3 7 8 26 24 43 39 42 35 49 -13 23 -50 -28 -118 -94 -155 -151 -58 -91 -155 -141 -285 -150 -101 -7 -155 -32 -226 -105 -73 -76 -121 -105 -203 -125 -63 -15 -127 -27 -143 -27 -4 0 -23 -7 -43 -15 -43 -18 -44 -18 -44 -5 0 6 6 10 13 10 7 0 29 13 48 29 27 23 39 27 48 18 8 -8 11 -7 11 7 0 12 5 16 14 13 11 -4 13 -1 9 11 -3 9 -3 14 2 10 10 -9 82 42 188 134 91 78 160 115 241 128 156 25 205 55 294 175 70 95 150 150 248 169 38 8 63 15 56 15 -7 1 -11 5 -8 10 7 10 -18 22 -36 17 -7 -1 -10 -1 -5 1 4 3 4 9 1 15 -4 6 2 8 17 4 21 -6 21 -5 6 4 -9 6 -15 15 -12 21 4 5 -1 12 -9 15 -9 3 -14 10 -11 14 3 5 1 11 -5 15 -5 3 -10 -3 -10 -14 0 -10 6 -22 13 -24 7 -3 6 -6 -5 -6 -9 -1 -20 4 -23 9 -10 16 5 50 21 50 8 0 14 4 14 8 0 5 -7 9 -15 9 -8 0 -15 -4 -15 -9 0 -4 -4 -8 -9 -8 -5 0 -8 8 -6 18 2 9 4 21 4 25 1 5 7 5 14 2 6 -4 1 3 -13 14 -14 11 -19 21 -12 21 12 0 9 7 -35 84 -9 14 -13 16 -13 6z"/>
    <path d="M7010 1921 c0 -6 4 -13 10 -16 6 -3 7 1 4 9 -7 18 -14 21 -14 7z"/>
    <path d="M9350 1909 c0 -5 5 -7 10 -4 6 3 10 8 10 11 0 2 -4 4 -10 4 -5 0 -10 -5 -10 -11z"/>
    <path d="M6952 1820 c-12 -12 -22 -24 -22 -27 0 -4 5 -2 12 5 16 16 31 15 22 0 -4 -7 -3 -10 1 -5 8 7 18 47 12 47 -2 0 -13 -9 -25 -20z"/>
    <path d="M9380 1821 c0 -6 4 -12 8 -15 5 -3 9 1 9 9 0 8 -4 15 -9 15 -4 0 -8 -4 -8 -9z"/>
    <path d="M6937 1756 c-4 -10 -5 -21 -2 -24 9 -9 17 6 13 25 -3 17 -4 17 -11 -1z"/>
    <path d="M6898 1708 c4 -17 2 -20 -11 -15 -11 4 -14 2 -11 -7 3 -8 13 -12 24 -9 10 3 21 -1 26 -8 5 -9 2 -10 -10 -6 -10 4 -19 1 -22 -8 -3 -7 -11 -13 -17 -11 -7 1 -9 1 -5 -1 4 -2 4 -11 1 -19 -3 -8 2 -22 10 -32 20 -22 22 -33 5 -43 -10 -7 -9 -9 5 -9 28 0 33 31 8 51 -18 15 -20 22 -11 39 12 23 21 25 39 8 10 -9 12 -9 7 -1 -3 6 -2 15 4 18 7 4 3 13 -10 25 -20 18 -28 36 -10 25 6 -3 10 -4 10 -1 0 3 -9 10 -19 15 -16 9 -18 8 -13 -11z"/>
    <path d="M6950 1710 c8 -5 20 -10 25 -10 6 0 3 5 -5 10 -8 5 -19 10 -25 10 -5 0 -3 -5 5 -10z"/>
    <path d="M6776 1653 c-6 -14 -5 -15 5 -6 7 7 10 15 7 18 -3 3 -9 -2 -12 -12z"/>
    <path d="M6810 1630 c8 -5 22 -9 30 -9 10 0 8 3 -5 9 -27 12 -43 12 -25 0z"/>
    <path d="M6770 1596 c0 -2 8 -10 18 -17 15 -13 16 -12 3 4 -13 16 -21 21 -21 13z"/>
    <path d="M6845 1591 c-3 -6 -10 -9 -14 -7 -4 3 -8 -1 -8 -9 0 -8 2 -15 4 -15 9 0 35 31 30 36 -3 3 -8 0 -12 -5z"/>
    <path d="M6860 1570 c-9 -6 -10 -10 -3 -10 6 0 15 5 18 10 8 12 4 12 -15 0z"/>
    <path d="M9505 1540 c-36 -14 -48 -37 -40 -78 25 -133 -24 -209 -169 -258 -51 -18 -70 -41 -60 -78 21 -85 258 5 341 130 38 57 38 58 38 157 0 92 -2 100 -24 118 -25 20 -53 23 -86 9z"/>
    <path d="M6803 1528 c2 -7 10 -12 16 -10 7 1 10 -2 7 -7 -4 -5 -1 -13 5 -17 7 -4 9 -3 6 3 -9 15 29 23 43 9 8 -8 9 -6 4 7 -4 10 -13 16 -20 13 -8 -3 -26 -1 -40 4 -20 8 -25 7 -21 -2z"/>
    <path d="M6896 1515 c4 -9 -2 -18 -17 -23 -19 -7 -20 -10 -5 -15 9 -4 26 -1 36 6 22 13 26 27 9 27 -5 0 -7 5 -4 10 3 6 -1 10 -9 10 -10 0 -13 -6 -10 -15z"/>
    <path d="M6800 1490 c0 -5 5 -10 11 -10 5 0 7 5 4 10 -3 6 -8 10 -11 10 -2 0 -4 -4 -4 -10z"/>
    <path d="M9702 1444 c-1 -13 0 -24 2 -24 7 0 14 40 7 44 -4 3 -8 -6 -9 -20z"/>
    <path d="M5840 1422 c-111 -54 -179 -196 -135 -281 13 -26 12 -33 -5 -69 -24 -50 -25 -96 -2 -139 9 -17 70 -87 134 -155 64 -68 129 -136 144 -153 14 -16 57 -61 93 -100 37 -38 104 -110 148 -160 44 -49 127 -138 184 -197 57 -59 115 -121 129 -138 l25 -30 378 0 c238 0 376 4 372 10 -3 5 -12 7 -19 4 -14 -5 -46 20 -46 37 0 19 -60 68 -75 63 -10 -4 -15 0 -15 14 0 11 -7 25 -15 32 -18 15 -20 -1 -2 -19 9 -11 7 -11 -10 0 -16 10 -21 19 -16 34 5 18 4 19 -12 5 -17 -14 -18 -13 -12 2 4 11 0 23 -9 30 -35 29 -64 64 -64 75 0 7 -7 13 -16 13 -10 0 -14 6 -11 14 3 8 -1 13 -8 12 -8 0 -14 3 -14 8 0 5 -10 14 -23 20 -13 7 -22 20 -22 29 1 9 -2 15 -6 12 -12 -8 -41 6 -34 16 3 5 1 9 -5 9 -6 0 -13 11 -17 24 -3 13 -16 29 -29 36 -14 7 -22 16 -20 20 3 4 -3 7 -13 6 -11 0 -16 5 -14 16 1 10 -8 20 -25 26 -16 6 -22 11 -15 11 15 1 -52 71 -68 71 -6 0 -9 4 -5 9 3 6 -4 15 -15 21 -11 6 -18 15 -15 21 4 5 1 9 -5 9 -6 0 -8 5 -4 11 5 8 1 8 -13 0 -18 -9 -20 -7 -17 14 1 13 -1 24 -4 24 -24 -4 -42 3 -42 15 0 8 -5 18 -12 22 -7 5 -8 3 -3 -6 5 -9 4 -11 -4 -6 -6 4 -9 11 -6 16 3 5 -3 18 -14 29 -11 11 -25 29 -31 42 -8 14 -15 18 -19 11 -4 -7 -14 0 -25 18 -9 17 -22 28 -27 24 -5 -3 -8 0 -7 7 2 7 -8 18 -20 25 -21 10 -65 68 -67 86 0 3 -4 10 -9 15 -5 5 -6 3 -2 -4 11 -20 -19 -16 -37 5 -15 17 -17 21 -17 43 0 5 -4 8 -8 5 -5 -3 -15 6 -22 19 -7 14 -20 25 -27 25 -8 0 -11 5 -8 10 3 6 1 10 -5 10 -6 0 -8 5 -4 13 5 8 2 7 -9 -2 -10 -8 -20 -11 -24 -7 -3 3 -1 6 6 6 7 0 9 5 4 13 -4 6 -8 19 -8 27 0 9 -7 14 -18 12 -18 -3 -95 64 -84 74 9 10 28 -6 21 -18 -4 -7 -2 -8 5 -4 6 4 18 4 24 -1 7 -4 4 0 -8 10 -11 10 -30 26 -41 37 -12 11 -24 17 -27 13 -4 -3 1 -12 11 -20 16 -14 16 -14 -1 -9 -10 3 -23 6 -28 6 -5 0 -3 16 6 35 8 20 10 33 5 30 -17 -11 -55 17 -93 69 -5 7 -13 4 -24 -9 -13 -16 -15 -17 -10 -2 8 21 1 21 -43 -1z m150 -67 c0 -12 -19 -12 -23 0 -4 9 -1 12 9 8 7 -3 14 -7 14 -8z m1234 -1307 c-3 -4 -14 -3 -25 2 -24 13 -25 22 -1 13 13 -5 11 1 -8 23 l-25 29 32 -29 c18 -16 30 -33 27 -38z"/>
    <path d="M6790 1430 c0 -5 5 -10 10 -10 6 0 10 5 10 10 0 6 -4 10 -10 10 -5 0 -10 -4 -10 -10z"/>
    <path d="M6790 1391 c0 -6 4 -13 10 -16 6 -3 7 1 4 9 -7 18 -14 21 -14 7z"/>
    <path d="M9664 1380 c0 -11 6 -22 12 -24 7 -3 10 3 7 15 -7 26 -19 32 -19 9z"/>
    <path d="M6771 1343 c0 -11 3 -13 6 -5 2 6 10 9 15 6 7 -4 8 -2 4 4 -11 18 -26 14 -25 -5z"/>
    <path d="M9677 1321 c-18 -11 -25 -21 -18 -25 6 -4 11 -3 11 2 0 6 9 8 20 5 16 -4 18 -9 10 -24 -8 -15 -7 -17 5 -13 8 3 12 11 8 17 -4 6 0 8 9 5 8 -4 15 -1 15 7 0 7 -7 11 -16 8 -11 -3 -10 0 3 11 11 9 15 16 10 16 -6 0 -16 -6 -23 -12 -11 -11 -13 -10 -8 5 8 21 8 21 -26 -2z"/>
    <path d="M9631 1251 c-18 -16 -31 -31 -29 -33 3 -5 -33 -43 -41 -43 -3 0 -6 -7 -6 -15 0 -9 -9 -15 -22 -14 -13 0 -23 -3 -23 -8 0 -5 -4 -6 -10 -3 -5 3 -10 -1 -10 -10 0 -9 -4 -13 -10 -10 -5 3 -10 2 -10 -4 0 -6 -8 -8 -17 -5 -15 5 -15 3 2 -12 l20 -17 -20 8 c-28 11 -57 8 -65 -6 -5 -6 -13 -8 -21 -4 -9 6 -11 3 -6 -9 5 -13 3 -15 -11 -7 -20 11 -72 10 -72 -1 0 -5 17 -9 38 -10 20 -1 44 -2 53 -3 9 0 24 -7 34 -15 24 -20 55 -23 55 -6 0 9 -8 13 -22 10 -13 -2 -17 -2 -10 2 6 3 12 10 12 15 0 6 -5 7 -12 3 -7 -4 -8 -3 -4 4 4 7 14 12 22 12 8 0 12 -5 9 -10 -3 -6 4 -14 17 -19 13 -6 17 -10 10 -10 -7 -1 -10 -6 -7 -11 9 -15 -30 -74 -68 -102 -17 -14 -84 -44 -147 -67 -149 -55 -171 -70 -236 -157 -50 -68 -88 -101 -106 -96 -5 1 -8 -2 -8 -6 0 -14 -65 -32 -151 -40 -84 -9 -134 -27 -158 -56 -11 -13 -10 -20 4 -42 l17 -27 112 6 c199 10 317 66 414 197 58 77 97 102 238 148 109 36 180 86 225 158 20 33 46 48 36 20 -3 -7 0 -19 6 -25 9 -9 8 -11 -5 -6 -12 5 -21 -2 -33 -24 -9 -18 -13 -36 -10 -41 3 -5 0 -12 -6 -16 -8 -4 -9 -3 -5 4 13 21 -5 12 -46 -22 -21 -19 -66 -44 -99 -56 -32 -12 -59 -25 -59 -29 0 -3 -12 -7 -27 -8 -15 0 -52 -13 -83 -28 -46 -22 -66 -40 -110 -102 -30 -41 -64 -79 -75 -84 -11 -5 -35 -20 -53 -34 -39 -28 -157 -69 -191 -67 -12 1 -28 -1 -33 -4 -10 -6 -86 -16 -123 -16 -34 0 -103 22 -120 38 -22 22 -19 70 6 95 25 25 96 58 126 59 12 0 25 5 28 10 4 7 -17 8 -62 5 -113 -10 -129 -14 -210 -60 -96 -55 -149 -66 -289 -64 -87 2 -116 -1 -142 -15 -23 -12 -32 -22 -28 -33 5 -13 4 -14 -9 -3 -14 12 -20 7 -16 -14 1 -4 -3 -14 -9 -21 -8 -9 -8 -15 0 -20 5 -3 10 -1 10 5 0 7 7 10 15 6 8 -3 15 0 15 5 0 6 9 9 19 6 12 -3 22 1 25 10 5 12 9 13 21 3 8 -7 13 -15 11 -19 -3 -4 0 -13 5 -21 8 -13 10 -13 19 0 13 20 13 33 -2 24 -7 -4 -8 -3 -4 5 6 9 11 9 23 -1 10 -8 11 -14 4 -16 -6 -2 -11 -8 -11 -13 0 -4 8 -6 18 -3 13 5 14 4 3 -4 -10 -7 -6 -13 18 -25 31 -15 76 -13 51 3 -8 5 -6 11 5 20 9 7 15 9 14 4 -4 -24 3 -40 19 -40 9 -1 24 -3 32 -5 11 -3 14 5 13 33 -1 30 1 35 12 25 8 -8 10 -16 4 -23 -13 -16 0 -44 17 -37 8 3 14 -1 14 -8 0 -7 3 -9 8 -5 4 4 7 12 7 18 0 6 10 17 23 25 14 10 22 11 22 4 0 -6 -7 -11 -15 -11 -16 0 -19 -9 -9 -34 6 -15 34 -11 34 5 0 4 -7 5 -17 2 -11 -4 -14 -3 -9 6 5 7 18 10 31 7 19 -5 26 -1 34 22 l11 27 -5 -29 c-5 -22 -3 -27 8 -23 8 3 19 1 25 -5 6 -6 12 -6 17 3 6 8 4 10 -5 4 -9 -5 -11 -4 -6 4 4 6 12 8 18 5 6 -4 14 -1 18 7 6 9 11 5 15 -14 4 -15 11 -24 16 -21 5 3 6 10 3 16 -4 6 3 5 15 -2 17 -9 26 -9 37 0 7 7 12 16 9 20 -3 5 8 7 25 5 18 -3 28 0 25 5 -4 6 1 10 9 10 9 0 15 -5 13 -11 -1 -6 9 -15 22 -20 l25 -10 -20 23 c-10 13 -15 20 -10 16 5 -4 16 -2 24 5 13 10 15 9 10 -3 -4 -12 2 -16 28 -17 22 0 34 4 34 13 0 8 6 11 17 7 12 -5 14 -3 8 7 -6 9 -4 11 4 6 7 -5 10 -14 7 -22 -3 -8 -1 -14 3 -14 5 0 12 8 15 17 5 12 9 14 18 5 7 -7 16 -12 22 -12 5 0 -1 8 -12 19 -12 10 -19 21 -15 25 9 8 23 8 22 -1 -3 -19 2 -23 15 -11 8 7 11 17 8 22 -3 5 0 6 6 2 7 -4 12 -14 12 -22 0 -8 5 -14 11 -14 6 0 9 6 6 14 -3 8 1 17 9 20 21 8 24 8 24 -5 0 -5 -6 -7 -12 -3 -7 4 -10 3 -5 -1 12 -14 42 -12 57 3 11 12 10 13 -9 7 -12 -4 -21 -2 -21 4 0 10 16 13 80 15 17 1 25 6 24 18 -1 14 4 16 21 12 13 -3 26 -1 30 5 3 6 11 9 16 6 5 -4 9 -1 9 4 0 6 -4 11 -10 11 -5 0 -7 7 -3 16 3 9 9 12 12 6 3 -5 17 -12 31 -15 22 -5 23 -5 8 7 -22 16 -23 26 -3 26 8 0 15 -4 15 -10 0 -5 7 -7 16 -3 8 3 13 12 10 19 -3 8 1 14 8 14 8 0 16 -5 18 -12 3 -7 13 -5 33 8 23 15 25 20 12 22 -9 2 -17 7 -17 12 0 4 9 6 20 3 14 -4 20 -1 18 8 -2 8 3 12 12 10 24 -6 46 -8 33 -4 -7 3 -13 9 -13 14 0 6 5 7 10 4 6 -3 10 -2 10 4 0 6 7 8 15 5 10 -4 18 3 25 21 8 21 14 25 31 20 15 -5 19 -4 15 4 -4 6 0 11 9 11 9 0 14 4 11 9 -8 12 4 41 16 41 6 0 5 -6 -2 -15 -10 -12 -10 -15 0 -15 14 0 49 40 50 58 0 6 5 12 11 12 5 0 7 -5 3 -12 -4 -7 -3 -8 4 -4 17 10 3 36 -16 29 -14 -4 -14 -3 -3 5 13 9 13 13 0 28 -8 11 -9 15 -2 10 7 -4 21 -2 31 3 13 7 23 6 32 -2 7 -7 10 -7 8 -2 -5 9 15 36 24 32 2 -1 0 2 -5 8 -5 6 -11 5 -16 -3 -7 -11 -10 -10 -14 3 -4 9 -3 14 2 11 5 -3 12 1 15 10 6 15 8 15 26 -1 12 -10 20 -13 20 -7 0 7 -4 12 -9 12 -5 0 -7 9 -4 20 6 23 19 26 26 8 2 -7 4 -1 3 14 -1 22 -4 24 -16 15 -13 -10 -13 -10 -3 4 7 9 9 19 5 24 -4 4 3 3 15 -3 19 -10 20 -9 16 9 -4 12 1 25 13 34 11 8 14 15 7 15 -6 0 -15 -5 -18 -10 -8 -13 -45 6 -45 22 0 6 9 3 20 -7 18 -16 20 -16 26 -1 3 9 10 13 15 10 5 -3 6 2 3 10 -3 9 -10 14 -14 11 -19 -12 -16 25 3 39 l22 15 -24 0 -24 1 27 21 c14 11 31 17 37 13 8 -4 9 -3 5 4 -4 7 -18 12 -32 12 -13 0 -24 4 -24 8 0 10 -36 9 -46 -1 -8 -7 21 -38 30 -32 3 3 4 2 1 -2 -8 -10 -45 -11 -45 -2 0 5 -6 6 -14 3 -8 -3 -17 -1 -20 4 -3 5 2 9 11 8 12 -1 18 7 19 22 1 13 -4 22 -13 22 -10 0 -13 -6 -9 -16 3 -8 2 -12 -4 -9 -5 3 -9 17 -8 30 2 18 6 21 18 16 8 -5 21 -6 29 -3 8 3 11 0 7 -7 -7 -11 5 -14 57 -13 15 0 27 -5 27 -11 0 -7 5 -4 11 6 6 10 8 21 5 24 -3 4 -6 1 -6 -5 0 -8 -7 -9 -24 -2 -13 5 -27 6 -30 2 -9 -8 -2 30 7 46 11 17 -8 15 -23 -3 -10 -12 -10 -15 0 -15 8 0 11 -3 7 -6 -3 -4 -14 -3 -24 0 -13 5 -14 9 -5 15 13 8 7 41 -7 41 -4 0 -22 -13 -40 -29z m23 -16 c3 -8 1 -15 -3 -15 -5 0 -11 7 -15 15 -3 8 -1 15 3 15 5 0 11 -7 15 -15z m-49 -55 c3 -5 1 -10 -4 -10 -6 0 -11 5 -11 10 0 6 2 10 4 10 3 0 8 -4 11 -10z m-34 -47 c-12 -20 -14 -14 -5 12 4 9 9 14 11 11 3 -2 0 -13 -6 -23z m39 23 c0 -3 -4 -8 -10 -11 -5 -3 -10 -1 -10 4 0 6 5 11 10 11 6 0 10 -2 10 -4z m-42 -66 c3 -7 0 -10 -6 -6 -17 10 -33 -28 -19 -44 8 -10 6 -10 -7 0 -18 14 -19 13 -14 -7 4 -16 2 -23 -8 -23 -8 0 -11 6 -7 16 4 10 0 20 -10 26 -18 10 -23 38 -8 38 6 0 13 -5 17 -12 4 -7 3 -8 -4 -4 -7 4 -12 3 -12 -2 0 -14 28 -23 36 -11 3 5 1 16 -5 23 -6 7 -8 16 -5 19 11 10 48 1 52 -13z m142 -45 c14 -19 14 -19 -2 -6 -10 7 -18 18 -18 24 0 6 1 8 3 6 1 -2 9 -13 17 -24z m-47 -50 c-3 -9 -8 -14 -10 -11 -3 3 -2 9 2 15 9 16 15 13 8 -4z m47 -7 c0 -4 -4 -8 -9 -8 -6 0 -12 4 -15 8 -3 5 1 9 9 9 8 0 15 -4 15 -9z m-155 -258 c-6 -9 -9 -9 -16 1 -10 17 0 34 13 21 6 -6 7 -16 3 -22z m-65 -39 c0 -5 -7 -12 -16 -15 -14 -5 -15 -4 -4 9 14 17 20 19 20 6z m-133 -66 c0 -8 -4 -12 -9 -9 -5 3 -6 10 -3 15 9 13 12 11 12 -6z m-52 -74 c3 -5 1 -12 -5 -16 -5 -3 -10 1 -10 9 0 18 6 21 15 7z m-210 -111 c3 -5 2 -10 -4 -10 -5 0 -13 5 -16 10 -3 6 -2 10 4 10 5 0 13 -4 16 -10z m-901 -58 c-6 -4 -14 -14 -17 -22 -4 -10 -6 -8 -6 8 -1 15 5 22 17 22 10 0 13 -3 6 -8z m601 -12 c3 -5 1 -10 -4 -10 -6 0 -11 5 -11 10 0 6 2 10 4 10 3 0 8 -4 11 -10z m-255 -4 c0 -2 -7 -7 -16 -10 -8 -3 -12 -2 -9 4 6 10 25 14 25 6z m65 -44 c-2 -2 -11 3 -20 12 -9 9 -21 16 -26 16 -6 0 -8 4 -4 10 3 5 17 0 30 -12 14 -12 23 -23 20 -26z m-330 29 c9 -16 -9 -20 -23 -5 -10 12 -10 14 2 14 8 0 17 -4 21 -9z m220 -1 c-3 -5 -11 -10 -16 -10 -6 0 -7 5 -4 10 3 6 11 10 16 10 6 0 7 -4 4 -10z"/>
    <path d="M9525 1090 c3 -5 8 -10 11 -10 2 0 4 5 4 10 0 6 -5 10 -11 10 -5 0 -7 -4 -4 -10z"/>
    <path d="M6105 1230 c3 -5 8 -10 11 -10 2 0 4 5 4 10 0 6 -5 10 -11 10 -5 0 -7 -4 -4 -10z"/>
    <path d="M9730 1230 c0 -5 5 -10 11 -10 5 0 7 5 4 10 -3 6 -8 10 -11 10 -2 0 -4 -4 -4 -10z"/>
    <path d="M6901 1174 c0 -11 3 -14 6 -6 3 7 2 16 -1 19 -3 4 -6 -2 -5 -13z"/>
    <path d="M6890 1136 c0 -8 6 -17 13 -19 7 -3 5 -6 -5 -6 -11 -1 -18 -8 -17 -18 0 -10 3 -13 5 -6 3 7 11 10 19 7 9 -4 12 1 10 13 -2 10 -4 24 -4 31 -1 17 -21 15 -21 -2z"/>
    <path d="M9769 1123 c0 -5 -3 -19 -5 -32 -2 -14 -2 -22 1 -19 8 8 17 58 10 58 -3 0 -5 -3 -6 -7z"/>
    <path d="M6260 1056 c0 -2 7 -9 15 -16 9 -7 15 -8 15 -2 0 5 -7 12 -15 16 -8 3 -15 4 -15 2z"/>
    <path d="M9213 1037 c-3 -6 -2 -7 4 -4 6 4 15 -5 21 -18 7 -14 17 -25 24 -25 10 0 10 2 0 9 -8 4 -13 11 -13 15 3 23 -1 33 -14 33 -9 0 -19 -5 -22 -10z"/>
    <path d="M9270 1033 c8 -4 23 -17 33 -30 11 -13 21 -22 24 -20 7 8 -44 57 -58 56 -11 0 -11 -2 1 -6z"/>
    <path d="M9316 1031 c-8 -12 10 -24 23 -16 5 3 12 1 15 -3 7 -11 41 -9 41 3 0 5 -7 10 -15 10 -8 1 -25 5 -37 9 -12 4 -24 2 -27 -3z"/>
    <path d="M9084 1020 c-120 -7 -129 -12 -234 -120 -86 -87 -136 -110 -246 -110 -85 0 -117 -15 -187 -89 -75 -78 -129 -97 -245 -84 -155 17 -259 -9 -339 -84 -48 -44 -52 -64 -23 -93 31 -31 79 -26 140 16 90 62 111 67 240 60 132 -8 162 -1 271 65 56 33 78 41 135 45 166 13 218 37 300 139 87 108 154 155 225 155 38 1 123 39 121 55 0 6 -11 13 -24 17 -19 5 -20 6 -4 7 20 1 20 1 0 16 -10 8 -21 14 -24 13 -3 -1 -51 -4 -106 -8z m102 -16 c-4 -10 1 -26 11 -38 14 -16 11 -15 -10 3 -26 23 -38 49 -17 36 6 -3 10 -1 10 4 0 6 3 11 6 11 3 0 3 -7 0 -16z"/>
    <path d="M9425 1000 c-3 -5 -1 -10 4 -10 6 0 11 5 11 10 0 6 -2 10 -4 10 -3 0 -8 -4 -11 -10z"/>
    <path d="M4397 830 c-73 -81 -111 -203 -82 -259 15 -30 15 -35 -1 -76 -9 -24 -14 -55 -11 -67 9 -34 58 -80 113 -107 27 -13 75 -41 106 -62 32 -22 62 -39 66 -39 5 0 28 -14 51 -30 23 -17 67 -43 99 -57 31 -15 75 -40 96 -55 21 -15 45 -28 52 -28 7 0 14 -3 16 -7 2 -5 18 -16 36 -25 31 -17 80 -18 602 -18 419 0 571 3 576 12 4 6 3 8 -3 5 -6 -4 -22 3 -37 14 -14 11 -30 18 -35 14 -5 -3 -13 0 -17 6 -4 8 -3 9 4 5 7 -4 12 -5 12 -2 0 3 -9 10 -21 16 -15 9 -24 8 -37 -1 -9 -8 -14 -9 -9 -4 4 4 0 17 -9 27 -14 15 -20 16 -32 5 -13 -10 -15 -9 -10 5 9 22 -2 30 -20 15 -13 -10 -15 -9 -9 5 4 12 2 15 -9 11 -8 -3 -20 -1 -27 5 -6 5 -25 12 -40 16 -17 4 -31 16 -37 31 -10 26 -30 34 -30 13 -1 -7 -7 -2 -15 12 -8 14 -15 21 -15 15 0 -5 -4 -5 -8 2 -4 7 -37 23 -72 37 -38 14 -64 30 -62 37 2 9 -2 8 -14 -2 -12 -9 -15 -10 -10 -1 5 8 -2 14 -23 18 -17 4 -31 11 -31 16 0 5 -8 8 -17 6 -10 -2 -17 2 -16 8 1 7 -6 10 -20 7 -16 -3 -18 -2 -8 5 16 11 -10 24 -64 31 -5 1 -4 5 3 10 11 7 10 9 -3 14 -10 5 -14 3 -9 -4 4 -7 1 -10 -7 -7 -8 3 -13 11 -11 18 2 11 0 11 -12 1 -10 -8 -16 -9 -21 -1 -3 6 -11 8 -16 4 -6 -3 -9 2 -7 12 2 11 -2 18 -9 17 -19 -4 -94 38 -87 48 3 5 -2 6 -10 3 -11 -4 -16 0 -16 11 0 15 -2 16 -17 4 -9 -8 -14 -9 -10 -3 4 7 0 15 -9 18 -8 3 -12 11 -8 17 4 7 3 9 -4 5 -13 -8 -64 13 -75 31 -5 8 -12 11 -18 8 -5 -4 -9 -2 -9 3 0 6 -10 8 -22 4 -14 -3 -19 -2 -14 6 7 12 -5 16 -31 13 -7 -1 -13 5 -13 14 0 9 -4 13 -10 10 -14 -9 -72 24 -64 37 5 7 2 8 -6 3 -7 -4 -16 -2 -20 5 -4 6 -19 13 -34 13 -16 1 -24 7 -22 14 3 8 -1 10 -11 6 -10 -4 -14 -2 -10 4 4 6 0 13 -8 17 -8 3 -15 0 -15 -6 0 -6 -9 -3 -19 6 -12 11 -25 15 -33 10 -11 -6 -11 -5 0 8 9 11 10 18 2 23 -5 3 -10 0 -10 -7 -1 -8 -6 -6 -15 6 -14 19 -15 19 -15 1 0 -17 -1 -17 -18 -2 -10 10 -27 17 -38 17 -16 0 -16 2 -4 10 8 5 12 11 10 13 -18 14 -83 37 -111 39 -19 2 -37 7 -40 11 -3 5 -27 -15 -52 -43z m163 0 c0 -5 -2 -10 -4 -10 -3 0 -8 5 -11 10 -3 6 -1 10 4 10 6 0 11 -4 11 -10z"/>
    <path d="M4616 821 c-3 -5 1 -11 9 -14 9 -4 12 -1 8 9 -6 16 -10 17 -17 5z"/>
    <path d="M9603 813 c-7 -3 -13 -10 -13 -15 0 -6 3 -8 7 -5 3 4 12 2 20 -4 7 -6 13 -8 13 -3 0 17 -15 31 -27 27z"/>
    <path d="M7935 670 c-3 -6 1 -7 9 -4 18 7 21 14 7 14 -6 0 -13 -4 -16 -10z"/>
    <path d="M9356 577 c3 -10 9 -15 12 -12 3 3 0 11 -7 18 -10 9 -11 8 -5 -6z"/>
    <path d="M5315 430 c3 -5 8 -10 11 -10 2 0 4 5 4 10 0 6 -5 10 -11 10 -5 0 -7 -4 -4 -10z"/>
    <path d="M7950 406 c0 -8 -5 -16 -12 -18 -7 -3 -8 -7 -2 -11 5 -3 15 3 22 13 7 12 8 21 2 25 -6 3 -10 0 -10 -9z"/>
    <path d="M8056 395 c-3 -8 -9 -14 -13 -14 -4 1 -19 -3 -33 -9 -19 -8 -21 -11 -7 -11 12 -1 16 -6 11 -13 -4 -7 3 -3 15 10 21 21 41 22 41 1 0 -6 -4 -8 -9 -4 -5 3 -13 0 -17 -6 -5 -9 0 -10 15 -6 12 3 27 -1 35 -9 12 -11 15 -11 20 3 4 9 4 18 1 21 -3 3 -5 -1 -5 -9 -1 -9 -8 -6 -20 10 -11 12 -18 27 -15 31 3 5 1 11 -4 14 -5 3 -12 -1 -15 -9z"/>
    <path d="M8637 326 c-4 -11 -1 -13 10 -9 12 5 14 3 8 -7 -5 -8 -4 -11 3 -6 12 7 5 36 -8 36 -4 0 -10 -7 -13 -14z"/>
    <path d="M2830 221 c13 -9 12 -11 -3 -11 -12 0 -16 -4 -11 -12 4 -7 -2 -4 -14 6 -12 11 -25 16 -29 12 -4 -4 -1 -11 7 -16 9 -6 10 -10 3 -10 -7 0 -17 8 -22 18 -10 16 -10 16 -11 0 0 -11 -6 -16 -19 -13 -14 3 -18 -1 -14 -11 3 -8 0 -14 -6 -14 -6 0 -11 6 -11 13 0 8 -4 7 -10 -3 -5 -8 -10 -11 -10 -6 0 5 -6 3 -13 -3 -8 -6 -17 -8 -20 -4 -4 3 -16 -2 -27 -12 -11 -10 -20 -13 -20 -7 0 18 -27 14 -34 -4 -3 -9 -12 -14 -20 -11 -7 3 -19 -3 -26 -14 -8 -10 -17 -14 -20 -9 -6 10 -92 -18 -98 -32 -2 -5 -8 -6 -13 -2 -5 3 -9 -2 -9 -11 0 -11 -7 -14 -25 -11 -16 3 -23 1 -19 -5 3 -6 -2 -9 -11 -7 -9 2 -24 -7 -33 -20 l-15 -23 323 3 c248 2 324 6 328 16 2 6 8 10 13 6 5 -3 9 1 9 8 0 9 3 9 10 -2 8 -13 10 -13 10 2 0 9 8 22 18 27 15 9 14 11 -8 12 -14 1 -29 1 -35 -1 -5 -1 -2 7 8 18 16 18 16 20 -6 40 -13 12 -27 19 -30 15 -4 -3 -7 -1 -7 5 0 7 6 12 13 12 8 0 7 4 -3 10 -23 15 -29 12 -25 -11 3 -17 2 -19 -10 -9 -11 9 -12 16 -2 31 14 23 4 35 -38 44 -23 5 -26 4 -15 -4z m-35 -161 c-3 -5 -12 -10 -18 -10 -7 0 -6 4 3 10 19 12 23 12 15 0z m-195 -34 c0 -3 -4 -8 -10 -11 -5 -3 -10 -1 -10 4 0 6 5 11 10 11 6 0 10 -2 10 -4z"/>
    <path d="M5790 176 c0 -2 7 -7 16 -10 8 -3 12 -2 9 4 -6 10 -25 14 -25 6z"/>
    <path d="M960 41 c0 -6 4 -13 10 -16 6 -3 7 1 4 9 -7 18 -14 21 -14 7z"/>
    <path d="M7250 46 c0 -2 7 -9 15 -16 9 -7 15 -8 15 -2 0 5 -7 12 -15 16 -8 3 -15 4 -15 2z"/>
    <path d="M2255 21 c-6 -5 -19 -11 -30 -14 -13 -3 -9 -5 13 -6 22 -1 32 4 32 14 0 17 -2 18 -15 6z"/>
    <path d="M2985 10 l-40 -7 53 -2 c29 0 52 3 52 9 0 11 -5 11 -65 0z"/>
  </g>
</svg>